<svg xmlns="http://www.w3.org/2000/svg" width="512" height="512" viewBox="0 0 512 512"><path fill="#2D3090" d="M40 512c-22.1 0-40-17.9-40-40V40C0 17.9 17.9 0 40 0h432c22.1 0 40 17.9 40 40v432c0 22.1-17.9 40-40 40H40z"/><path fill="#F6AD3C" d="M376.9 284.4H275.8l-130.3 112 245.3-89.7zM273 224h66.3l-8.2-13.2h-60.4zM281.8 273.1h88.1l-8.3-13.2h-82.1zM277.4 248.5h77.2l-8.2-13.2h-71.3zM268.6 199.5h55.5l-8.2-13.2h-49.6zM293.6 150.4l-47.4-76.2 13.6 76.2zM264.2 175h44.6l-8.2-13.3h-38.7z"/><path fill="#ED6D00" d="M354.6 68.4l-1.2.7-232.2 132 139.1 242.5-33.8-215.1z"/></svg>