<svg xmlns="http://www.w3.org/2000/svg" width="598.9" height="230.9" viewBox="0 0 598.9 230.9"><style>.st0{fill-rule:evenodd;clip-rule:evenodd;fill:#0862af}</style><g id="svg_39"><path id="svg_29" d="m453.4,78.5c-14.1,-4.9 -18.5,-7.8 -18.5,-13.1c0,-5.9 4.9,-9.4 13.6,-9.4c7.1,0 14.2,2 19.5,4.1l2.3,-25.6c-6.5,-1.8 -14.4,-3.2 -23,-3.2c-28.4,0 -46.7,16.2 -46.7,37.5c-0.2,13.6 8.9,26.5 32.6,34.5c13.4,4.5 16.9,7.3 16.9,13.1c0,5.9 -4.5,9.6 -15.3,9.6c-10.5,0 -24.1,-4.7 -30.7,-8.7l-6.3,25.6c8.7,4.7 22,8 37.1,8c32.9,0 49.7,-15.7 49.7,-37.1c-0.2,-16.8 -9.3,-27.8 -31.2,-35.3l0,0zm86.3,43.4c-10.8,0 -14.1,-6.3 -14.1,-20.2l0,-98.8l-34.9,8l0,23.1l-13.3,0l-2.4,26.3l15.8,0l0,46.8c0,16.2 3.3,27.2 9.9,34c5.6,5.9 15.2,9.9 26.7,9.9c10.1,0 18.5,-1.2 23.2,-3.1l-0.2,-27c-2.7,0.5 -6.2,1 -10.7,1l0,0zm-11.3,-61.7l21.9,0l0,-26.3l-21.9,0l0,26.3l0,0zm-396.1,33.1c-0.7,-17.6 -1.3,-38.8 -1.3,-60.1l-0.7,0c-4.7,18.7 -11.1,39.5 -17,56.6l-18.6,57.1l-26.8,0l-16.3,-56.7c-5,-17.2 -10.2,-38 -13.8,-57.1l-0.4,0c-0.9,19.7 -1.6,42.3 -2.7,60.6l-2.7,55.6l-32,0l9.7,-146.3l45.9,0l14.9,48.8c4.7,16.9 9.5,35.2 12.9,52.3l0.7,0c4.3,-16.9 9.5,-36.3 14.5,-52.5l16.3,-48.6l45,0l8.4,146.3l-33.7,0l-2.3,-56l0,0zm188.9,9.3c1.2,14.8 15.7,21.8 32.4,21.8c12.2,0 22,-1.6 31.7,-4.7l4.7,24.2c-11.7,4.7 -26,7 -41.5,7c-38.9,0 -61.2,-22.5 -61.2,-58.4c0,-29.1 18.1,-61.2 57.9,-61.2c37.1,0 51.1,28.8 51.1,57.2c0,6.1 -0.7,11.5 -1.2,14.1l-73.9,0l0,0zm42,-24.4c0,-8.7 -3.8,-23.2 -20.2,-23.2c-15,0 -21.1,13.6 -22,23.2l42.2,0l0,0z" class="st0"/><path id="svg_30" fill="#ed1c24" fill-rule="evenodd" d="m574.7,3l24.2,44l-24.2,44.2l-24.5,0l24.2,-44.2l-24.2,-44l24.5,0l0,0zm-298.9,189.5l-98.2,0l0,-24.4l98.2,0l0,24.4l0,0zm-69.4,-89.9c1.2,14.8 15.7,21.8 32.4,21.8c12.2,0 22,-1.6 31.7,-4.7l4.7,24.2c-11.7,4.7 -26,7 -41.5,7c-38.9,0 -61.2,-22.5 -61.2,-58.4c0,-29.1 18.1,-61.2 57.9,-61.2c37.1,0 51.1,28.8 51.1,57.2c0,6.1 -0.7,11.5 -1.2,14.1l-73.9,0l0,0zm42,-24.4c0,-8.7 -3.8,-23.2 -20.2,-23.2c-15,0 -21.1,13.6 -22.1,23.2l42.3,0l0,0z" clip-rule="evenodd"/><path id="svg_31" d="M364.29998779296875 187L348.29998779296875 187 348.29998779296875 179.60000610351562 365.20001220703125 179.60000610351562 365.20001220703125 169.60000610351562 336.3999938964844 169.60000610351562 336.3999938964844 215.39999389648438 366.20001220703125 215.39999389648438 366.20001220703125 205.39999389648438 348.29998779296875 205.39999389648438 348.29998779296875 196.89999389648438 364.29998779296875 196.89999389648438 364.29998779296875 187z" class="st0"/><path id="svg_32" d="m366.9,182l10.6,16.4l-10.7,17.1l13,0l2.4,-5.4c0.3,-0.7 0.6,-1.5 1,-2.3c0.3,-0.8 0.7,-1.6 1.1,-2.5l0.2,0c0.3,0.8 0.6,1.6 1,2.4c0.4,0.8 0.7,1.6 1.1,2.4l2.6,5.4l13.4,0l-10.5,-17.6l10.5,-15.8l-12.8,0l-2.2,4.7c-0.4,0.8 -0.7,1.6 -1.1,2.5c-0.3,0.8 -0.7,1.7 -1.1,2.6l-0.2,0c-0.4,-0.8 -0.7,-1.6 -1.1,-2.4c-0.4,-0.8 -0.8,-1.6 -1.2,-2.4l-2.6,-4.9l-13.4,0l0,-0.2z" class="st0"/><path id="svg_33" d="m404.2,228.9l11.9,0l0,-15.9l0.1,0c0.4,0.6 1,1.1 1.7,1.6c0.7,0.5 1.6,0.9 2.6,1.2c1,0.3 2.1,0.4 3.4,0.5c1.4,0 2.8,-0.2 4.2,-0.7c1.4,-0.5 2.7,-1.2 4,-2.1c1.3,-0.9 2.4,-2.1 3.3,-3.5c1,-1.4 1.7,-3.1 2.3,-5c0.6,-1.9 0.8,-4.1 0.9,-6.6c0,-2.7 -0.4,-5.1 -1.1,-7.3c-0.7,-2.1 -1.7,-3.9 -3,-5.4c-1.3,-1.5 -2.7,-2.6 -4.3,-3.3c-1.6,-0.7 -3.2,-1.1 -5,-1.1c-2.2,0 -4.2,0.4 -6,1.3c-1.8,0.8 -3.3,2.1 -4.5,3.7l-0.1,0l-0.5,-4.2l-10.1,0c0.1,1.6 0.1,3.3 0.2,5.2c0,1.9 0.1,4 0.1,6.2l-0.1,35.4l0,0zm11.9,-32.2c0,-0.3 0,-0.5 0,-0.8c0,-0.3 0.1,-0.5 0.1,-0.8c0.1,-0.8 0.4,-1.5 0.9,-2.2c0.5,-0.7 1,-1.2 1.7,-1.6c0.7,-0.4 1.4,-0.6 2.2,-0.6c1.3,0 2.3,0.4 3.1,1.1c0.8,0.7 1.4,1.6 1.9,2.9c0.4,1.2 0.6,2.6 0.6,4.2c0,1.6 -0.2,3 -0.7,4.2c-0.5,1.2 -1.1,2.1 -2,2.8c-0.8,0.7 -1.9,1 -3.1,1c-0.8,0 -1.5,-0.2 -2.2,-0.6c-0.6,-0.4 -1.2,-0.8 -1.6,-1.5c-0.4,-0.6 -0.7,-1.3 -0.9,-2c-0.1,-0.6 -0.2,-1.3 -0.2,-2l0,-4.1l0.2,0z" class="st0"/><path id="svg_34" d="m442.4,215.4l11.9,0l0,-16.5c0,-0.4 0,-0.8 0,-1.1c0,-0.3 0.1,-0.7 0.2,-1c0.3,-1.4 1,-2.4 2.1,-3.1c1.1,-0.7 2.6,-1.1 4.3,-1.1c0.6,0 1.2,0 1.7,0.1c0.5,0.1 0.9,0.1 1.4,0.2l0,-11.5c-0.3,-0.1 -0.5,-0.1 -0.8,-0.1c-0.2,0 -0.5,0 -0.7,0c-0.2,0 -0.5,0 -0.9,0c-0.7,0 -1.5,0.1 -2.3,0.3c-0.8,0.2 -1.6,0.6 -2.4,1.1c-0.8,0.5 -1.6,1.2 -2.2,2.1c-0.7,0.9 -1.2,1.9 -1.7,3.2l-0.3,0l-0.4,-6.1l-10.1,0c0,0.9 0.1,1.9 0.1,3c0,1.1 0.1,2.3 0.1,3.6c0,1.4 0,2.9 0,4.7l0,22.2l0,0z" class="st0"/><path id="svg_35" d="m496.1,203c0.1,-0.4 0.2,-1 0.3,-1.9c0.1,-0.8 0.1,-1.7 0.2,-2.8c0,-2.3 -0.3,-4.5 -0.9,-6.5c-0.6,-2.1 -1.5,-3.9 -2.7,-5.5c-1.2,-1.6 -2.8,-2.8 -4.7,-3.7c-1.9,-0.9 -4.1,-1.4 -6.8,-1.4c-2.4,0 -4.5,0.4 -6.3,1.1c-1.8,0.7 -3.4,1.7 -4.7,2.9c-1.3,1.2 -2.4,2.6 -3.3,4.1c-0.8,1.5 -1.5,3.1 -1.9,4.8c-0.4,1.7 -0.6,3.3 -0.6,4.9c0,3.5 0.7,6.6 2.1,9.2c1.4,2.5 3.4,4.5 6.1,5.9c2.7,1.4 5.9,2.1 9.7,2.1c2,0 4.1,-0.1 6.1,-0.5c2.1,-0.3 4.1,-0.9 6,-1.7l-1.5,-8.2c-1.4,0.5 -2.9,0.8 -4.4,1c-1.5,0.2 -3,0.3 -4.5,0.3c-1,0 -2,-0.1 -3,-0.3c-1,-0.2 -1.8,-0.5 -2.6,-0.8c-0.8,-0.4 -1.4,-0.8 -1.9,-1.3c-0.5,-0.5 -0.8,-1.1 -0.9,-1.8l20.2,0l0,0.1zm-20.2,-8.3c0,-0.5 0.2,-1.1 0.4,-1.7c0.2,-0.6 0.5,-1.2 0.9,-1.8c0.4,-0.6 0.9,-1 1.5,-1.4c0.6,-0.4 1.4,-0.5 2.2,-0.6c0.9,0 1.7,0.2 2.3,0.6c0.6,0.4 1.1,0.8 1.4,1.4c0.3,0.6 0.6,1.2 0.7,1.8c0.1,0.6 0.2,1.2 0.2,1.7l-9.6,0l0,0z" class="st0"/><path id="svg_36" d="m498.3,213.8c0.9,0.5 1.9,0.9 3,1.2c1.1,0.4 2.4,0.6 3.8,0.8c1.4,0.2 2.8,0.3 4.3,0.3c2.5,0 4.7,-0.3 6.5,-0.8c1.9,-0.6 3.4,-1.3 4.6,-2.4c1.2,-1 2.1,-2.2 2.7,-3.5c0.6,-1.4 0.9,-2.8 0.9,-4.5c0,-1.6 -0.3,-3.1 -0.9,-4.4c-0.6,-1.3 -1.5,-2.4 -2.9,-3.4c-1.3,-1 -3,-1.9 -5.1,-2.6c-1.3,-0.4 -2.3,-0.8 -3,-1.1c-0.7,-0.3 -1.2,-0.6 -1.5,-1c-0.3,-0.3 -0.4,-0.6 -0.4,-1c0,-0.7 0.3,-1.2 0.8,-1.5c0.6,-0.3 1.3,-0.5 2.4,-0.4c0.9,0 1.8,0.1 2.7,0.3c0.9,0.2 1.7,0.4 2.5,0.7c0.8,0.3 1.4,0.5 1.9,0.8l1.9,-8.3c-0.7,-0.3 -1.6,-0.7 -2.6,-1c-1,-0.3 -2.1,-0.5 -3.3,-0.7c-1.2,-0.2 -2.5,-0.3 -3.8,-0.3c-2.8,0 -5.3,0.5 -7.4,1.5c-2.1,1 -3.7,2.3 -4.8,4.1c-1.1,1.7 -1.7,3.7 -1.7,5.9c0,1.3 0.3,2.6 0.8,3.9c0.6,1.3 1.6,2.4 3,3.5c1.4,1.1 3.3,2 5.6,2.8c1.2,0.4 2,0.7 2.6,1c0.6,0.3 1,0.6 1.3,0.9c0.2,0.3 0.3,0.6 0.3,1c0,0.6 -0.3,1.1 -0.8,1.4c-0.5,0.3 -1.4,0.5 -2.7,0.5c-0.7,0 -1.5,-0.1 -2.4,-0.2c-0.8,-0.2 -1.7,-0.4 -2.5,-0.6c-0.8,-0.2 -1.6,-0.5 -2.3,-0.8c-0.7,-0.3 -1.3,-0.6 -1.8,-0.9l-1.7,8.8l0,0z" class="st0"/><path id="svg_37" d="m526,213.8c0.9,0.5 1.9,0.9 3,1.2c1.1,0.4 2.4,0.6 3.8,0.8c1.4,0.2 2.8,0.3 4.3,0.3c2.5,0 4.7,-0.3 6.5,-0.8c1.9,-0.6 3.4,-1.3 4.6,-2.4c1.2,-1 2.1,-2.2 2.7,-3.5c0.6,-1.4 0.9,-2.8 0.9,-4.5c0,-1.6 -0.3,-3.1 -0.9,-4.4c-0.6,-1.3 -1.5,-2.4 -2.9,-3.4c-1.3,-1 -3,-1.9 -5.1,-2.6c-1.3,-0.4 -2.3,-0.8 -3,-1.1c-0.7,-0.3 -1.2,-0.6 -1.5,-1c-0.3,-0.3 -0.4,-0.6 -0.4,-1c0,-0.7 0.3,-1.2 0.8,-1.5c0.6,-0.3 1.3,-0.5 2.4,-0.4c0.9,0 1.8,0.1 2.7,0.3c0.9,0.2 1.7,0.4 2.5,0.7c0.8,0.3 1.4,0.5 1.9,0.8l1.9,-8.3c-0.7,-0.3 -1.6,-0.7 -2.6,-1c-1,-0.3 -2.1,-0.5 -3.3,-0.7c-1.2,-0.2 -2.5,-0.3 -3.8,-0.3c-2.8,0 -5.3,0.5 -7.4,1.5c-2.1,1 -3.7,2.3 -4.8,4.1c-1.1,1.7 -1.7,3.7 -1.7,5.9c0,1.3 0.3,2.6 0.8,3.9c0.6,1.3 1.6,2.4 3,3.5c1.4,1.1 3.3,2 5.6,2.8c1.2,0.4 2,0.7 2.6,1c0.6,0.3 1,0.6 1.3,0.9c0.2,0.3 0.3,0.6 0.3,1c0,0.6 -0.3,1.1 -0.8,1.4c-0.5,0.3 -1.4,0.5 -2.7,0.5c-0.7,0 -1.5,-0.1 -2.4,-0.2c-0.8,-0.2 -1.7,-0.4 -2.5,-0.6c-0.8,-0.2 -1.6,-0.5 -2.3,-0.8c-0.7,-0.3 -1.3,-0.6 -1.8,-0.9l-1.7,8.8l0,0z" class="st0"/></g></svg>