<svg id="Слой_1" data-name="Слой 1" xmlns="http://www.w3.org/2000/svg" xmlns:xlink="http://www.w3.org/1999/xlink" viewBox="0 0 469.31149 352.78379"><defs><style>.cls-1,.cls-11,.cls-14,.cls-4{stroke:#faf9ff;}.cls-1,.cls-10,.cls-11,.cls-12,.cls-13,.cls-14,.cls-15,.cls-16,.cls-17,.cls-18,.cls-19,.cls-2,.cls-20,.cls-3,.cls-4,.cls-5,.cls-6,.cls-7,.cls-8,.cls-9{stroke-miterlimit:10;}.cls-1{fill:url(#Безымянный_градиент_9);}.cls-12,.cls-13,.cls-15,.cls-16,.cls-17,.cls-19,.cls-2,.cls-3,.cls-5,.cls-6,.cls-7,.cls-9{stroke:#e2ddfc;}.cls-2{fill:url(#Безымянный_градиент_9-2);}.cls-3{fill:url(#Безымянный_градиент_9-3);}.cls-4{fill:url(#Безымянный_градиент_9-4);}.cls-5{fill:url(#Безымянный_градиент_9-5);}.cls-6{fill:url(#Безымянный_градиент_9-6);}.cls-7{fill:url(#Безымянный_градиент_9-7);}.cls-10,.cls-18,.cls-20,.cls-8{stroke:#fff;}.cls-8{fill:url(#Безымянный_градиент_10);}.cls-9{fill:url(#Безымянный_градиент_9-8);}.cls-10{fill:url(#Безымянный_градиент_10-2);}.cls-11{fill:url(#Безымянный_градиент_9-9);}.cls-12{fill:url(#Безымянный_градиент_9-10);}.cls-13{fill:url(#Безымянный_градиент_9-11);}.cls-14{fill:url(#Безымянный_градиент_9-12);}.cls-15{fill:url(#Безымянный_градиент_9-13);}.cls-16{fill:url(#Безымянный_градиент_9-14);}.cls-17{fill:url(#Безымянный_градиент_9-15);}.cls-18{fill:url(#Безымянный_градиент_10-3);}.cls-19{fill:url(#Безымянный_градиент_9-16);}.cls-20{fill:url(#Безымянный_градиент_10-4);}</style><linearGradient id="Безымянный_градиент_9" y1="94.55742" x2="1" y2="94.55742" gradientTransform="matrix(37.82605, 0, 0, -17.41504, -265.47397, 1436.33875)" gradientUnits="userSpaceOnUse"><stop offset="0" stop-color="#c500ff"/><stop offset="1" stop-color="#7e4fde"/></linearGradient><linearGradient id="Безымянный_градиент_9-2" y1="94.53" y2="94.53" gradientTransform="matrix(34.85596, 0, 0, -33.33032, -289.821, 2908.91919)" xlink:href="#Безымянный_градиент_9"/><linearGradient id="Безымянный_градиент_9-3" x1="0.69895" y1="94.78225" x2="-0.48005" y2="94.13825" gradientTransform="matrix(34.77905, 0, 0, -33.15527, -237.54504, 2893.45776)" xlink:href="#Безымянный_градиент_9"/><linearGradient id="Безымянный_градиент_9-4" y1="94.5591" y2="94.5591" gradientTransform="matrix(32.58301, 0, 0, -16.91919, -263.13699, 1400.68391)" xlink:href="#Безымянный_градиент_9"/><linearGradient id="Безымянный_градиент_9-5" x1="1.00699" y1="94.68437" x2="-0.90001" y2="94.30737" gradientTransform="matrix(55.56201, 0, 0, -38.02222, -235.08942, 3371.35449)" xlink:href="#Безымянный_градиент_9"/><linearGradient id="Безымянный_градиент_9-6" y1="94.5263" y2="94.5263" gradientTransform="matrix(55.56177, 0, 0, -38.02222, -313.53894, 3370.60452)" xlink:href="#Безымянный_градиент_9"/><linearGradient id="Безымянный_градиент_9-7" y1="94.51685" y2="94.51685" gradientTransform="matrix(59.36621, 0, 0, -59.36011, -320.99915, 5416.15825)" xlink:href="#Безымянный_градиент_9"/><linearGradient id="Безымянный_градиент_10" y1="94.52373" x2="1" y2="94.52373" gradientTransform="matrix(42.134, 0, 0, -42.134, 9.20703, 4047.15913)" gradientUnits="userSpaceOnUse"><stop offset="0" stop-color="#ffc744"/><stop offset="1" stop-color="#ffb609"/></linearGradient><linearGradient id="Безымянный_градиент_9-8" x1="0.98201" y1="94.64081" x2="-0.89699" y2="94.15781" gradientTransform="matrix(59.37671, 0, 0, -59.37451, -232.06445, 5417.52666)" xlink:href="#Безымянный_градиент_9"/><linearGradient id="Безымянный_градиент_10-2" y1="94.52373" y2="94.52373" gradientTransform="matrix(42.134, 0, 0, -42.134, 98.06104, 4047.25215)" xlink:href="#Безымянный_градиент_10"/><linearGradient id="Безымянный_градиент_9-9" x1="8.49284" y1="79.70727" x2="9.47936" y2="79.70727" xlink:href="#Безымянный_градиент_9"/><linearGradient id="Безымянный_градиент_9-10" x1="9.22593" y1="86.75811" x2="10.21246" y2="86.75811" gradientTransform="matrix(34.85596, 0, 0, -33.33032, -289.821, 2908.91919)" xlink:href="#Безымянный_градиент_9"/><linearGradient id="Безымянный_градиент_9-11" x1="9.91561" y1="86.96638" x2="8.7525" y2="86.33106" gradientTransform="matrix(34.77905, 0, 0, -33.15527, -237.54504, 2893.45776)" xlink:href="#Безымянный_градиент_9"/><linearGradient id="Безымянный_градиент_9-12" x1="9.85849" y1="79.28266" x2="10.84501" y2="79.28266" gradientTransform="matrix(32.58301, 0, 0, -16.91919, -263.13699, 1400.68391)" xlink:href="#Безымянный_градиент_9"/><linearGradient id="Безымянный_градиент_9-13" x1="6.76788" y1="87.87615" x2="4.88659" y2="87.50423" gradientTransform="matrix(55.56201, 0, 0, -38.02222, -235.08942, 3371.35449)" xlink:href="#Безымянный_градиент_9"/><linearGradient id="Безымянный_градиент_9-14" x1="5.79352" y1="87.71994" x2="6.78005" y2="87.71994" gradientTransform="matrix(55.56177, 0, 0, -38.02222, -313.53894, 3370.60452)" xlink:href="#Безымянный_градиент_9"/><linearGradient id="Безымянный_градиент_9-15" x1="5.42395" y1="90.16375" x2="6.41047" y2="90.16375" gradientTransform="matrix(59.36621, 0, 0, -59.36011, -320.99915, 5416.15825)" xlink:href="#Безымянный_градиент_9"/><linearGradient id="Безымянный_градиент_10-3" x1="7.63948" y1="88.39088" x2="8.626" y2="88.39088" xlink:href="#Безымянный_градиент_10"/><linearGradient id="Безымянный_градиент_9-16" x1="6.37157" y1="90.2871" x2="4.5179" y2="89.81061" gradientTransform="matrix(59.37671, 0, 0, -59.37451, -232.06445, 5417.52666)" xlink:href="#Безымянный_градиент_9"/><linearGradient id="Безымянный_градиент_10-4" x1="7.61105" y1="88.39091" x2="8.59757" y2="88.39091" gradientTransform="matrix(42.134, 0, 0, -42.134, 98.06104, 4047.25215)" xlink:href="#Безымянный_градиент_10"/></defs><title>вторая иконка второго блока</title><g id="Group_102" data-name="Group 102"><path id="Path_3634" data-name="Path 3634" class="cls-1" d="M-260.797-219.09h30.149l3,17.415L-265.474-203.735Z" transform="translate(321.49902 258.96122)"/><path id="Path_3635" data-name="Path 3635" class="cls-2" d="M-289.821-240.063s16.666-24.718,28.838-16.853,2.114,31.78492,2.114,31.78492Z" transform="translate(321.49902 258.96122)"/><path id="Path_3636" data-name="Path 3636" class="cls-3" d="M-202.766-238.3479s-16.08789-25.1001-28.439-17.51807-2.85009,31.728-2.85009,31.728Z" transform="translate(321.49902 258.96122)"/><path id="Path_3637" data-name="Path 3637" class="cls-4" d="M-263.137-203.641l11.625-3.34106a16.90134,16.90134,0,0,1,9.333,0l11.625,3.34106a28.96484,28.96484,0,0,0-1.311,12.9209l-7.843-3.627a16.89972,16.89972,0,0,0-14.258.03393l-7.6709,3.59327S-260.137-195.214-263.137-203.641Z" transform="translate(321.49902 258.96122)"/><path id="Path_3638" data-name="Path 3638" class="cls-5" d="M-230.648-203.73389l-2.76611-7.08911a23.85412,23.85412,0,0,1,3.866-24.06592c4.8899-5.783,12.929-9.719,25.89991-4.26a23.96364,23.96364,0,0,1,9.543,7.3l14.57789,18.5669Z" transform="translate(321.49902 258.96122)"/><path id="Path_3639" data-name="Path 3639" class="cls-6" d="M-262.418-204.48386l2.766-7.08912a23.85578,23.85578,0,0,0-3.866-24.06591c-4.89-5.783-12.929-9.719-25.9-4.26a23.96176,23.96176,0,0,0-9.543,7.3l-14.578,18.56689Z" transform="translate(321.49902 258.96122)"/><path id="Path_3640" data-name="Path 3640" class="cls-7" d="M-261.639-194.371a29.68,29.68,0,0,1-29.68091,29.6792A29.6801,29.6801,0,0,1-320.999-194.37276a29.67994,29.67994,0,0,1,29.67895-29.6792c13.548,0,24.459,9.89991,28.172,20.312A26.31688,26.31688,0,0,1-261.639-194.371Z" transform="translate(321.49902 258.96122)"/><circle id="Ellipse_81" data-name="Ellipse 81" class="cls-8" cx="30.27403" cy="64.49624" r="21.067"/><path id="Path_3641" data-name="Path 3641" class="cls-9" d="M-181.51294-215.487a29.689,29.689,0,0,0-41.98584.26269,29.68625,29.68625,0,0,0-6.55322,10.11939q-.264.67638-.492,1.37109v.01a29.68411,29.68411,0,0,0,18.81714,37.52588,29.6838,29.6838,0,0,0,37.52588-18.81714,29.68347,29.68347,0,0,0-7.30908-30.4707Z" transform="translate(321.49902 258.96122)"/><circle id="Ellipse_82" data-name="Ellipse 82" class="cls-10" cx="119.12803" cy="64.58926" r="21.067"/></g><g id="Group_102-2" data-name="Group 102"><path id="Path_3634-2" data-name="Path 3634" class="cls-11" d="M60.39062,39.64344H90.1333l2.95957,17.18031-37.31621-2.0323Z" transform="translate(321.49902 258.96122)"/><path id="Path_3635-2" data-name="Path 3635" class="cls-12" d="M31.75779,18.9531S48.19917-5.43176,60.20711,2.32723s2.08552,31.35649,2.08552,31.35649Z" transform="translate(321.49902 258.96122)"/><path id="Path_3636-2" data-name="Path 3636" class="cls-13" d="M117.63942,20.64507s-15.871-24.76179-28.05565-17.282S86.77209,34.6635,86.77209,34.6635Z" transform="translate(321.49902 258.96122)"/><path id="Path_3637-2" data-name="Path 3637" class="cls-14" d="M58.08213,54.88414l11.46832-3.296a16.67361,16.67361,0,0,1,9.20721,0l11.46831,3.296a28.57418,28.57418,0,0,0-1.29336,12.74674L81.1953,64.05281a16.672,16.672,0,0,0-14.06588.03348l-7.5675,3.54483S61.0417,63.19755,58.08213,54.88414Z" transform="translate(321.49902 258.96122)"/><path id="Path_3638-2" data-name="Path 3638" class="cls-15" d="M90.13321,54.79254,87.40438,47.799a23.53263,23.53263,0,0,1,3.81386-23.74155c4.824-5.705,12.75469-9.588,25.55081-4.20259a23.64045,23.64045,0,0,1,9.41434,7.20166l14.3814,18.31664Z" transform="translate(321.49902 258.96122)"/><path id="Path_3639-2" data-name="Path 3639" class="cls-16" d="M58.79147,54.05267l2.72871-6.99356a23.53426,23.53426,0,0,0-3.81386-23.74155c-4.8241-5.705-12.75469-9.588-25.55093-4.20259a23.63888,23.63888,0,0,0-9.41434,7.20166L8.35954,44.63327Z" transform="translate(321.49902 258.96122)"/><path id="Path_3640-2" data-name="Path 3640" class="cls-17" d="M59.5599,64.02918a29.28,29.28,0,1,1-29.281-29.28085c13.36536,0,24.12931,9.76646,27.79228,20.03823A25.96241,25.96241,0,0,1,59.5599,64.02918Z" transform="translate(321.49902 258.96122)"/><circle id="Ellipse_81-2" data-name="Ellipse 81" class="cls-18" cx="351.87174" cy="322.89773" r="20.78305"/><path id="Path_3641-2" data-name="Path 3641" class="cls-19" d="M138.606,43.19782A29.28882,29.28882,0,0,0,90.72119,53.44q-.26049.66727-.48531,1.35261v.00988A29.28387,29.28387,0,1,0,138.6089,43.199Z" transform="translate(321.49902 258.96122)"/><circle id="Ellipse_82-2" data-name="Ellipse 82" class="cls-20" cx="439.52812" cy="322.9895" r="20.78305"/></g></svg>