<svg id="Слой_1" data-name="Слой 1" xmlns="http://www.w3.org/2000/svg" xmlns:xlink="http://www.w3.org/1999/xlink" viewBox="0 0 148.30902 121.08887"><defs><style>.cls-1{fill:url(#Безымянный_градиент_2);}.cls-2,.cls-3{fill:none;stroke-width:2px;}.cls-2{stroke:#d57bfb;stroke-linecap:round;stroke-linejoin:round;isolation:isolate;}.cls-3{stroke:#fff;stroke-miterlimit:10;}.cls-4{fill:#ffc744;}</style><linearGradient id="Безымянный_градиент_2" x1="2.17114" y1="120.48496" x2="3.17114" y2="120.48496" gradientTransform="matrix(148.30902, 0, 0, -121.08936, -321.5, 14649.99121)" gradientUnits="userSpaceOnUse"><stop offset="0" stop-color="#c500ff"/><stop offset="1" stop-color="#7e4fde"/></linearGradient></defs><title>четвёртая иконка второго блока</title><g id="Group_104" data-name="Group 104"><path id="Path_82-2" data-name="Path 82-2" class="cls-1" d="M148.809,12.06787V109.022c0,6.665-6.617,12.0669-14.78,12.06787H15.279C7.116,121.08984.5,115.68994.5,109.021h0V12.06689A10.30812,10.30812,0,0,1,2.283,6.313C4.869,2.4209,9.858-.00195,15.283.001H134.03c5.423,0,10.411,2.42187,13,6.314A10.31679,10.31679,0,0,1,148.809,12.06787Z" transform="translate(-0.5 -0.00097)"/></g><path id="Path_84" data-name="Path 84" class="cls-2" d="M22.331,24.29394l19.033,5.55078,8.987,11.89991,14.011,3.70019s8.194,1.853,6.873,3.17188-2.027,11.8999-2.027,11.8999l2.027-1.76514,18.5-12.248V23.76416l19.3-8.457,7.931,1.58789" transform="translate(-0.5 -0.00097)"/><path id="Path_85" data-name="Path 85" class="cls-2" d="M21.01,71.6132l24.32-4.23,7.93,18.856s11.9-8.01806,12.953-8.811-2.115-13.481-2.115-13.481l5.111-3.437,20.8,7.93115,6.873,16.125,12.16,8.459-5.023,11.1001-24.055-4.229" transform="translate(-0.5 -0.00097)"/><path id="Path_86" data-name="Path 86" class="cls-2" d="M81.984,65.25076,76.603,82.27468,69.554,92.49587l-8.811,7.3999" transform="translate(-0.5 -0.00097)"/><path id="Path_87" data-name="Path 87" class="cls-2" d="M65.215,63.9472,42.658,52.58l7.137-5.55176-9.252-6.873" transform="translate(-0.5 -0.00097)"/><path id="Path_88" data-name="Path 88" class="cls-2" d="M63.13,45.02689l9.5-12.00879L60.73,22.18021,80.556,18.48" transform="translate(-0.5 -0.00097)"/><path id="Path_89" data-name="Path 89" class="cls-2" d="M80.734,52.79788l15.068,11.148,13.746,4.229s5.023-10.31006,5.023-11.1001-8.459-19.209-8.459-19.209l6.08-1.67578" transform="translate(-0.5 -0.00097)"/><path id="Path_83" data-name="Path 83" class="cls-3" d="M41.156,44.2518,37.984,76.67759s37.361,9.51709,38.42,9.51709h2.115s20.09-11.63086,20.8-14.45118,1.762-27.49218,1.762-27.49218l-1.762-2.4668L82.75294,31.2103H57.371Z" transform="translate(-0.5 -0.00097)"/><path id="Path_90" data-name="Path 90" class="cls-4" d="M91.546,30.27191c-2.745,0-4.969,2.6499-4.969,5.91894s4.969,9.28076,4.969,9.28076,4.969-6.01123,4.969-9.28076S94.291,30.27191,91.546,30.27191ZM91.489,38.954a2.85588,2.85588,0,0,1-2.856-2.855h0a2.85691,2.85691,0,0,1,2.856-2.856h0a2.85691,2.85691,0,0,1,2.856,2.856h0a2.85588,2.85588,0,0,1-2.856,2.855Z" transform="translate(-0.5 -0.00097)"/></svg>