<svg id="Слой_1" data-name="Слой 1" xmlns="http://www.w3.org/2000/svg" xmlns:xlink="http://www.w3.org/1999/xlink" viewBox="0 0 100% 100%"><defs><style>.cls-1{fill:#fff;}.cls-2{fill:none;}.cls-3{fill:url(#Безымянный_градиент_5);}.cls-4{opacity:0.08;}.cls-5{fill:#bb0bfa;}.cls-6{fill:url(#Безымянный_градиент_2);}.cls-7{fill:url(#Безымянный_градиент_3);}.cls-8{fill:url(#Безымянный_градиент_4);}.cls-10,.cls-9{opacity:0.25;isolation:isolate;}.cls-9{fill:url(#Безымянный_градиент_6);}.cls-10{fill:url(#Безымянный_градиент_6-2);}</style><linearGradient id="Безымянный_градиент_5" x1="1.51179" y1="3141.83131" x2="0.76498" y2="3140.98353" gradientTransform="matrix(1919.99951, 0, 0, -1463.99072, -1264.99902, 4599708.87085)" gradientUnits="userSpaceOnUse"><stop offset="0" stop-color="#b98bff"/><stop offset="1" stop-color="#b283f7"/></linearGradient><linearGradient id="Безымянный_градиент_2" x1="1.15515" y1="3142.43358" x2="1.15515" y2="3141.43357" gradientTransform="matrix(1897.92969, 0, 0, -820.32666, -1242.92969, 2577820.90063)" gradientUnits="userSpaceOnUse"><stop offset="0" stop-color="#7e4fde"/><stop offset="1" stop-color="#c500ff"/></linearGradient><linearGradient id="Безымянный_градиент_3" x1="0.68635" y1="3141.87551" x2="-0.92881" y2="3142.36326" gradientTransform="matrix(345.95996, 0, 0, -691.3501, 309.08008, 2172705.51782)" gradientUnits="userSpaceOnUse"><stop offset="0" stop-color="#7317a1"/><stop offset="1" stop-color="#b781ff" stop-opacity="0.071"/></linearGradient><linearGradient id="Безымянный_градиент_4" x1="-0.72041" y1="3142.21306" x2="-2.09869" y2="3142.42895" gradientTransform="matrix(218.83008, 0, 0, -641.41992, 436.16992, 2015874.83569)" gradientUnits="userSpaceOnUse"><stop offset="0" stop-color="#7e4fde" stop-opacity="0.431"/><stop offset="1" stop-color="#ffa2f9" stop-opacity="0.071"/></linearGradient><linearGradient id="Безымянный_градиент_6" x1="2.19467" y1="3149.39827" x2="2.95428" y2="3148.65964" gradientTransform="matrix(126.204, -91.728, -91.728, -126.204, 288645.49374, 398708.2435)" gradientUnits="userSpaceOnUse"><stop offset="0" stop-color="#bc09fb"/><stop offset="1" stop-color="#fff" stop-opacity="0"/></linearGradient><linearGradient id="Безымянный_градиент_6-2" x1="3.95211" y1="3163.86554" x2="4.71172" y2="3163.12692" gradientTransform="matrix(46.922, -34.104, -34.104, -46.922, 107887.39488, 149487.13576)" xlink:href="#Безымянный_градиент_6"/></defs><title>новый фон</title><g id="Rectangle_108" data-name="Rectangle 108"><rect class="cls-1" x="0.00098" width="1919" height="3141"/><rect class="cls-2" x="0.50072" y="0.5" width="1918.00052" height="3140"/></g><path id="Path_213" data-name="Path 213" class="cls-3" d="M1920,154.56689v1073.613c-275.13543,236.40723-601.24772,371.38184-943.32923,373.78906-354.34416,2.49317-692.35893-137.48584-975.26961-385.37011V662.761l-.35968.686V615.822l-.041.11377V138.011h.041l.35968.01,170.7411,1.46508,104.64567.89991L1821.59571,153.717Z" transform="translate(-0.99902 1.5)"/><g id="Group_108" data-name="Group 108" class="cls-4"><path id="Path_3644" data-name="Path 3644" class="cls-5" d="M1919.60018,154.5V1227.82c-275.13665,236.41-601.24674,371.38-943.32849,373.79a1330.92714,1330.92714,0,0,1-312.40727-35.06,1394.29863,1394.29863,0,0,1-177.22772-54.09c3.888.54,401.28088,54.98,560.41793-565.96,65.35595-255.04,223.05368-373.76,386.67862-425C1670.45,447.37,1919.60018,154.5,1919.60018,154.5Z" transform="translate(-0.99902 1.5)"/></g><path id="Path_214" data-name="Path 214" class="cls-1" d="M1920-.759V184.291c-210.82617,346.09008-569.45814,583.59985-979.01669,629.01A1292.70984,1292.70984,0,0,1,715.019,818.4812C476.28162,803.031,247.69274,721.761,52.57615,587.46118Q38.9602,578.10157,25.57508,568.3811q-12.18774-8.82055-24.17539-17.93994l-.35967-.27a.1382.1382,0,0,0-.041-.02978V38.271l.041-.01.35967-.03,212.53915-20.95L345.08437,4.36108,397.04118-.759Z" transform="translate(-0.99902 1.5)"/><path id="Path_215" data-name="Path 215" class="cls-6" d="M1897.94118-.759a1312.3046,1312.3046,0,0,1-76.2952,155.28C1594.894,548.241,1176.1674,803.34106,715.03856,818.4812q-18.13923.58374-36.36924.68994A1325.34624,1325.34624,0,0,1,21.83875,648.761q-9.97917-5.5957-19.84757-11.37989c-.20009-.10986-.39969-.23-.59051-.33984l-.36065-.21a.13394.13394,0,0,1-.04-.02979V38.271l.04-.01V-1.13892H220.24757l-.1308.37989Z" transform="translate(-0.99902 1.5)"/><path id="Path_216" data-name="Path 216" class="cls-7" d="M346.81979-.759l-2.55872,5.12011L276.12665,140.511,52.45317,587.46118,21.789,648.761,1.39969,689.491l-.35967.72021V-1.13892H219.7161l-.12981.37989Z" transform="translate(-0.99902 1.5)"/><path id="Path_217" data-name="Path 217" class="cls-8" d="M219.7161-1.13892l-.12981.37989-6.15695,18.04-41.69848,122.28L25.517,568.3811l-23.52778,69-.58954,1.73L1.04,640.16089,1,640.281V38.271l.04-.01V-1.13892Z" transform="translate(-0.99902 1.5)"/><ellipse id="Ellipse_84" data-name="Ellipse 84" class="cls-9" cx="108.9592" cy="1050.98202" rx="77.96815" ry="78.00878"/><ellipse id="Ellipse_85" data-name="Ellipse 85" class="cls-10" cx="200.06172" cy="901.43598" rx="28.98816" ry="29.00326"/></svg>