<svg id="Слой_1" data-name="Слой 1" xmlns="http://www.w3.org/2000/svg" viewBox="0 0 155.99597 26.32812"><defs><style>.cls-1{fill:#fff;}.cls-2{fill:#ffc744;}</style></defs><title>логотип в меню</title><g id="WorldMail_логотип" data-name="WorldMail логотип"><g id="Group_26" data-name="Group 26"><path id="Path_200" data-name="Path 200" class="cls-1" d="M209.822,213.40088,202.9,237.908h-3.366l-5.042-17.90991a11.14659,11.14659,0,0,1-.393-2.5h-.068a12.68589,12.68589,0,0,1-.44495,2.46093L188.511,237.908h-3.333L178,213.40088h3.161l5.213,18.80005a12.29662,12.29662,0,0,1,.411,2.46094h.085a14.46205,14.46205,0,0,1,.53-2.46094l5.418-18.8h2.751l5.2,18.936a13.7663,13.7663,0,0,1,.41,2.29h.069a13.71393,13.71393,0,0,1,.46106-2.35888l5.007-18.867Z" transform="translate(-178 -212)"/><path id="Path_201" data-name="Path 201" class="cls-1" d="M219.03308,238.31787a8.12081,8.12081,0,0,1-6.2-2.4519,9.08709,9.08709,0,0,1-2.314-6.5,9.46439,9.46439,0,0,1,2.40905-6.887,8.66075,8.66075,0,0,1,6.511-2.478,7.84509,7.84509,0,0,1,6.109,2.40991,9.54681,9.54681,0,0,1,2.2,6.68188,9.3998,9.3998,0,0,1-2.36694,6.708A8.30044,8.30044,0,0,1,219.03308,238.31787Zm.2-15.96191a5.3309,5.3309,0,0,0-4.272,1.83691,7.54391,7.54391,0,0,0-1.572,5.06812,7.13383,7.13383,0,0,0,1.589,4.905,5.40038,5.40038,0,0,0,4.255,1.79394,5.12352,5.12352,0,0,0,4.179-1.761,7.64311,7.64311,0,0,0,1.46106-5.00708,7.77537,7.77537,0,0,0-1.46106-5.0581A5.09975,5.09975,0,0,0,219.238,222.356Z" transform="translate(-178 -212)"/><path id="Path_202" data-name="Path 202" class="cls-1" d="M241.35608,223.24487a3.42912,3.42912,0,0,0-2.119-.564,3.5743,3.5743,0,0,0-3,1.69189,7.82408,7.82408,0,0,0-1.2,4.614V237.908h-2.8v-17.5h2.8v3.6001h.068a6.09952,6.09952,0,0,1,1.829-2.87793,4.16595,4.16595,0,0,1,2.751-1.03492,4.576,4.576,0,0,1,1.676.24Z" transform="translate(-178 -212)"/><path id="Path_203" data-name="Path 203" class="cls-1" d="M247.197,237.908h-2.8V212h2.8Z" transform="translate(-178 -212)"/><path id="Path_204" data-name="Path 204" class="cls-1" d="M267.808,237.908h-2.8v-2.97412h-.068a6.47091,6.47091,0,0,1-6.016,3.384,6.53937,6.53937,0,0,1-5.27295-2.34912,9.648,9.648,0,0,1-1.973-6.3999,10.48244,10.48244,0,0,1,2.188-6.95508,7.20914,7.20914,0,0,1,5.827-2.615,5.61177,5.61177,0,0,1,5.24695,2.83691h.068v-10.835h2.8Zm-2.8-7.91211v-2.58106a5.00963,5.00963,0,0,0-1.4-3.58911,4.69985,4.69985,0,0,0-3.555-1.47,4.83948,4.83948,0,0,0-4.033,1.87989,8.23761,8.23761,0,0,0-1.469,5.2,7.39986,7.39986,0,0,0,1.41,4.7771,4.60936,4.60936,0,0,0,3.786,1.75195,4.7839,4.7839,0,0,0,3.8-1.69312,6.30051,6.30051,0,0,0,1.458-4.27563Z" transform="translate(-178 -212)"/></g><g id="Group_27" data-name="Group 27"><path id="Path_205" data-name="Path 205" class="cls-2" d="M298.843,237.908h-2.854V221.468q0-1.949.239-4.769h-.068a15.4094,15.4094,0,0,1-.735,2.376l-8.375,18.833h-1.4L277.292,219.208a14.61146,14.61146,0,0,1-.734-2.51294h-.068q.13293,1.4696.136,4.8V237.908h-2.7699V213.40088h3.795l7.519,17.09009a21.93835,21.93835,0,0,1,1.127,2.939h.1q.73407-2.01489,1.178-3.00708l7.673-17.022h3.59Z" transform="translate(-178 -212)"/><path id="Path_206" data-name="Path 206" class="cls-2" d="M317.437,237.908h-2.8v-2.73389h-.068a5.87013,5.87013,0,0,1-5.384,3.144,5.749,5.749,0,0,1-4.093-1.385,4.78821,4.78821,0,0,1-1.478-3.6731q0-4.905,5.776-5.708l5.247-.73608q0-4.45826-3.606-4.46a8.61027,8.61027,0,0,0-5.708,2.154v-2.87207a10.84947,10.84947,0,0,1,5.947-1.63989q6.169,0,6.17,6.52807Zm-2.8-8.853-4.222.582a6.83824,6.83824,0,0,0-2.939.96509,2.78382,2.78382,0,0,0-.991,2.45191,2.66841,2.66841,0,0,0,.91394,2.094,3.53308,3.53308,0,0,0,2.435.812,4.50018,4.50018,0,0,0,3.444-1.46094,5.22062,5.22062,0,0,0,1.359-3.7Z" transform="translate(-178 -212)"/><path id="Path_207" data-name="Path 207" class="cls-2" d="M324.156,215.96484a1.78028,1.78028,0,0,1-1.283-.51294,1.72993,1.72993,0,0,1-.52906-1.3,1.79333,1.79333,0,0,1,1.812-1.82911,1.818,1.818,0,0,1,1.307.521,1.82764,1.82764,0,0,1,0,2.59009A1.79982,1.79982,0,0,1,324.156,215.96484ZM325.523,237.908h-2.8v-17.5h2.8Z" transform="translate(-178 -212)"/><path id="Path_208" data-name="Path 208" class="cls-2" d="M333.996,237.908h-2.8V212h2.8Z" transform="translate(-178 -212)"/></g></g></svg>