<svg id="Слой_1" data-name="Слой 1" xmlns="http://www.w3.org/2000/svg" xmlns:xlink="http://www.w3.org/1999/xlink" viewBox="0 0 622.8113 852.00378"><defs><style>.cls-1{fill:url(#Безымянный_градиент_32);}.cls-2{fill:#8ab7d6;}.cls-3{fill:url(#Безымянный_градиент_28);}.cls-4{fill:url(#Безымянный_градиент_31);}.cls-5{fill:#fff4e6;}.cls-6{fill:#db8d58;}.cls-7{fill:#eaa16a;}.cls-8{fill:url(#Безымянный_градиент_31-2);}.cls-9{fill:#fcb981;}.cls-10{fill:url(#Безымянный_градиент_31-3);}.cls-11{fill:#ffe6c2;}.cls-12{fill:url(#Безымянный_градиент_28-2);}.cls-13,.cls-16{fill:#ffc897;}.cls-14{fill:url(#Безымянный_градиент_30);}.cls-15{fill:url(#Безымянный_градиент_30-2);}.cls-16{opacity:0.54;isolation:isolate;}.cls-17{fill:#e5ba8f;}.cls-18{fill:url(#Безымянный_градиент_30-3);}.cls-19{fill:url(#Безымянный_градиент_31-4);}.cls-20{fill:url(#Безымянный_градиент_30-4);}.cls-21{fill:url(#Безымянный_градиент_28-3);}.cls-22{fill:url(#Безымянный_градиент_27);}.cls-23{fill:url(#Безымянный_градиент_9);}.cls-24{fill:url(#Безымянный_градиент_26);}.cls-25{fill:url(#Безымянный_градиент_9-2);}.cls-26{fill:url(#Безымянный_градиент_9-3);}.cls-27{fill:url(#Безымянный_градиент_8);}.cls-28{fill:#9cc5e7;}.cls-29{fill:#cbe0ef;}.cls-30{fill:url(#Безымянный_градиент_7);}.cls-31{fill:url(#Безымянный_градиент_7-2);}.cls-32{fill:url(#Безымянный_градиент_7-3);}.cls-33{fill:#fff;}.cls-34{fill:url(#Безымянный_градиент_6);}.cls-35{fill:url(#Безымянный_градиент_6-2);}.cls-36{fill:url(#Безымянный_градиент_5);}.cls-37,.cls-38{stroke:#cc7d42;stroke-linejoin:round;}.cls-37{fill:url(#Безымянный_градиент_4);}.cls-38{fill:none;}.cls-39{fill:#daad92;stroke:#8e5e36;stroke-miterlimit:10;}.cls-40{fill:#ffebc4;}.cls-41{fill:url(#Безымянный_градиент_3);}.cls-42{fill:url(#Безымянный_градиент_3-2);}.cls-43{fill:url(#Безымянный_градиент_3-3);}.cls-44{fill:url(#Безымянный_градиент_3-4);}</style><linearGradient id="Безымянный_градиент_32" x1="1.13486" y1="1080.31086" x2="2.41354" y2="1080.31086" gradientTransform="matrix(422.67599, 0, 0, -99.522, -479.67599, 108303.0762)" gradientUnits="userSpaceOnUse"><stop offset="0" stop-color="#ffc744"/><stop offset="1" stop-color="#f7c663"/></linearGradient><linearGradient id="Безымянный_градиент_28" x1="1.60252" y1="1080.52695" x2="2.88121" y2="1080.52695" gradientTransform="matrix(120.59717, 0, 0, -154.6424, 500.60383, 167860.15602)" gradientUnits="userSpaceOnUse"><stop offset="0" stop-color="#fcb981"/><stop offset="1" stop-color="#ffe6c2"/></linearGradient><linearGradient id="Безымянный_градиент_31" x1="3.64135" y1="1081.30779" x2="4.92002" y2="1081.30779" gradientTransform="matrix(31.97986, 0, 0, -71.42102, 631.5893, 77747.39809)" gradientUnits="userSpaceOnUse"><stop offset="0" stop-color="#ffe6c2"/><stop offset="1" stop-color="#ffd297"/></linearGradient><linearGradient id="Безымянный_градиент_31-2" x1="1.28289" y1="1080.58844" x2="2.56158" y2="1080.58844" gradientTransform="matrix(238.46057, 0, 0, -384.35199, 364.06733, 415954.35903)" xlink:href="#Безымянный_градиент_31"/><linearGradient id="Безымянный_градиент_31-3" x1="2.01916" y1="1081.07813" x2="3.29785" y2="1081.07813" gradientTransform="matrix(67.06946, 0, 0, -98.39258, 538.674, 106893.07138)" xlink:href="#Безымянный_градиент_31"/><linearGradient id="Безымянный_градиент_28-2" x1="2.63583" y1="1081.60218" x2="4.52189" y2="1080.71989" gradientTransform="matrix(48.68896, 0, 0, -72.99512, 575.43501, 79449.00057)" xlink:href="#Безымянный_градиент_28"/><linearGradient id="Безымянный_градиент_30" x1="2.80924" y1="1081.07851" x2="4.08792" y2="1081.07851" gradientTransform="matrix(37.78052, 0, 0, -98.34161, 567.96087, 106837.97592)" gradientUnits="userSpaceOnUse"><stop offset="0" stop-color="#fff4e6"/><stop offset="1" stop-color="#ffe6c2"/></linearGradient><linearGradient id="Безымянный_градиент_30-2" x1="13.00509" y1="1088.70383" x2="14.28378" y2="1088.70383" gradientTransform="matrix(5.62695, 0, 0, -9.48303, 597.23704, 10751.2618)" xlink:href="#Безымянный_градиент_30"/><linearGradient id="Безымянный_градиент_30-3" x1="1.63179" y1="1080.5568" x2="2.91048" y2="1080.5568" gradientTransform="matrix(109.63232, 0, 0, -154.72504, 499.37854, 167932.87161)" xlink:href="#Безымянный_градиент_30"/><linearGradient id="Безымянный_градиент_31-4" x1="1.5942" y1="1080.77126" x2="2.67469" y2="1080.64083" gradientTransform="matrix(165.72729, 0, 0, -229.22656, 415.7632, 248286.76129)" xlink:href="#Безымянный_градиент_31"/><linearGradient id="Безымянный_градиент_30-4" x1="1.87763" y1="1080.44497" x2="2.66019" y2="1081.20962" gradientTransform="matrix(140.26648, 0, 0, -229.17792, 441.22804, 248234.20981)" xlink:href="#Безымянный_градиент_30"/><linearGradient id="Безымянный_градиент_28-3" x1="2.20161" y1="1080.72064" x2="2.99056" y2="1080.45595" gradientTransform="matrix(136.48987, 0, 0, -205.81122, 474.23877, 222974.89395)" xlink:href="#Безымянный_градиент_28"/><linearGradient id="Безымянный_градиент_27" x1="1.69767" y1="1082.02197" x2="2.97636" y2="1082.02197" gradientTransform="matrix(93.30396, 0, 0, -56.94907, 500.74508, 62006.45536)" gradientUnits="userSpaceOnUse"><stop offset="0" stop-color="#3a31ad"/><stop offset="1" stop-color="#17153a"/></linearGradient><linearGradient id="Безымянный_градиент_9" x1="2.72819" y1="1082.92277" x2="4.00688" y2="1082.92277" gradientTransform="matrix(45.39294, 0, 0, -36.76501, 596.56813, 40188.98181)" gradientUnits="userSpaceOnUse"><stop offset="0" stop-color="#242193"/><stop offset="1" stop-color="#0d0b5e"/></linearGradient><linearGradient id="Безымянный_градиент_26" x1="2.6689" y1="1082.21003" x2="2.46048" y2="1082.3558" gradientTransform="matrix(51.46558, 0, 0, -58.14487, 541.35285, 63297.92025)" gradientUnits="userSpaceOnUse"><stop offset="0" stop-color="#9595f9"/><stop offset="1" stop-color="#c5c5ef"/></linearGradient><linearGradient id="Безымянный_градиент_9-2" x1="949.38136" y1="1164.80422" x2="949.39071" y2="1164.69529" gradientTransform="matrix(0.078, 0, 0, -1, 625.66101, 1564.48602)" xlink:href="#Безымянный_градиент_9"/><linearGradient id="Безымянный_градиент_9-3" x1="2.62273" y1="1086.74095" x2="3.09328" y2="1085.69115" gradientTransform="matrix(59.67395, 0, 0, -13.89618, 568.00513, 15492.41589)" xlink:href="#Безымянный_градиент_9"/><linearGradient id="Безымянный_градиент_8" x1="1.5556" y1="1080.51819" x2="2.83429" y2="1080.51819" gradientTransform="matrix(185.10498, 0, 0, -156.6441, 544.39902, 170027.73447)" gradientUnits="userSpaceOnUse"><stop offset="0" stop-color="#eaeaea"/><stop offset="1" stop-color="#d2e7f9"/></linearGradient><linearGradient id="Безымянный_градиент_7" x1="6.43204" y1="1081.44606" x2="7.71073" y2="1081.44606" gradientTransform="matrix(26.97705, 0, 0, -21.41595, 859.31989, 23851.24196)" gradientUnits="userSpaceOnUse"><stop offset="0" stop-color="#98c2e5"/><stop offset="1" stop-color="#d2e7f9"/></linearGradient><linearGradient id="Безымянный_градиент_7-2" x1="4.88706" y1="1080.52914" x2="3.73113" y2="1080.52914" gradientTransform="matrix(43.172, 0, 0, -135.20599, 819.223, 146859.94415)" xlink:href="#Безымянный_градиент_7"/><linearGradient id="Безымянный_градиент_7-3" x1="1.8597" y1="1080.52214" x2="3.13838" y2="1080.52214" gradientTransform="matrix(119.62903, 0, 0, -150.05304, 609.87497, 162904.39075)" xlink:href="#Безымянный_градиент_7"/><linearGradient id="Безымянный_градиент_6" x1="5.01343" y1="1084.96132" x2="6.29212" y2="1084.96132" gradientTransform="matrix(22.246, 0, 0, -22.246, 36.59397, 24382.68611)" gradientUnits="userSpaceOnUse"><stop offset="0" stop-color="#fff"/><stop offset="1" stop-color="#fff" stop-opacity="0.6"/></linearGradient><linearGradient id="Безымянный_градиент_6-2" x1="4.55519" y1="1084.21277" x2="5.83388" y2="1084.21277" gradientTransform="matrix(28.1, 0, 0, -28.1, 68.84104, 30689.6962)" xlink:href="#Безымянный_градиент_6"/><linearGradient id="Безымянный_градиент_5" x1="1.37715" y1="1081.11678" x2="2.65584" y2="1081.11678" gradientTransform="matrix(293.88199, 0, 0, -196.702, -157.69205, 212803.17929)" gradientUnits="userSpaceOnUse"><stop offset="0" stop-color="#fff"/><stop offset="1" stop-color="#fff" stop-opacity="0.871"/><stop offset="1" stop-color="#fff" stop-opacity="0.6"/></linearGradient><linearGradient id="Безымянный_градиент_4" x1="1.74256" y1="1081.34535" x2="2.59545" y2="1081.45403" gradientTransform="matrix(155.72302, 0, 0, -127.409, 660.42398, 138023.93531)" gradientUnits="userSpaceOnUse"><stop offset="0" stop-color="#ffbf60"/><stop offset="1" stop-color="#f9c989"/></linearGradient><linearGradient id="Безымянный_градиент_3" x1="0.8516" y1="1083.19679" x2="2.88727" y2="1083.19679" gradientTransform="matrix(40.84595, 0, 0, -53.94678, 902.2782, 58551.46252)" gradientUnits="userSpaceOnUse"><stop offset="0" stop-color="#ffc744"/><stop offset="1" stop-color="#9ba8e8"/></linearGradient><linearGradient id="Безымянный_градиент_3-2" x1="0.68878" y1="1082.30084" x2="2.72445" y2="1082.30084" gradientTransform="matrix(45.42102, 0, 0, -67.51868, 936.42798, 73301.63245)" xlink:href="#Безымянный_градиент_3"/><linearGradient id="Безымянный_градиент_3-3" x1="-1.01808" y1="1084.35086" x2="1.01759" y2="1084.35086" gradientTransform="matrix(50.99329, 0, 0, -33.02676, 694.76843, 36013.0593)" xlink:href="#Безымянный_градиент_3"/><linearGradient id="Безымянный_градиент_3-4" x1="2.33216" y1="1082.83454" x2="4.36783" y2="1082.83454" gradientTransform="matrix(24.84766, 0, 0, -56.78397, 822.07251, 61663.401)" xlink:href="#Безымянный_градиент_3"/></defs><title>мыслитель</title><g id="Group_10" data-name="Group 10"><ellipse id="Ellipse_10" data-name="Ellipse 10" class="cls-1" cx="270.23461" cy="788.37516" rx="270.23461" ry="63.62862"/><path id="Path_11" data-name="Path 11" class="cls-2" d="M970.30592,665.34327l58.91672-2.32722,23.95364-4.49069,16.46821,13.61544-105.54906,5.09812Z" transform="translate(-622 -81.99622)"/><path id="Path_12" data-name="Path 12" class="cls-3" d="M693.86335,666.01077s19.46278,25.44586,29.94294,37.42837,32.93767,34.435,40.4231,40.423,50.9031,40.423,47.90852,61.37686c0,0-10.15143,40.6072-36.165,43.31668a9.5025,9.5025,0,0,0-2.87314.71606c-2.73375,1.20579-7.77184,4.21964-5.42161,9.3958a8.96468,8.96468,0,0,0,8.13242,5.07634c7.68865.0729,24.3231-.47435,33.33274-6.10575,11.97736-7.48542,38.92573-68.86867,38.92573-68.86867l-110.789-121.26915Z" transform="translate(-622 -81.99622)"/><path id="Path_13" data-name="Path 13" class="cls-4" d="M774.36676,481.24088s-27.35623,10.35731-19.8694,44.78845c0,0-13.47473,13.47481-1.49736,32.9376l16.46821,5.98806,11.97736-14.97085,7.48543-59.88589L784.43906,473.63Z" transform="translate(-622 -81.99622)"/><path id="Path_14" data-name="Path 14" class="cls-5" d="M752.75572,528.184c-3.19672,4.54189-8.90475,15.91449.24428,30.783l3.68136,1.33878s-5.57254-19.86308,1.45647-29.00313a6.60725,6.60725,0,0,0,1.09591-5.72848c-1.81189-6.73612-.615-25.56089,16.97191-46.70523-4.25156,1.9398-28.44558,14.97084-22.28488,44.15808A6.6285,6.6285,0,0,1,752.75572,528.184Z" transform="translate(-622 -81.99622)"/><path id="Path_15" data-name="Path 15" class="cls-6" d="M737.16093,481.23957s17.33638,10.35732,11.34833,14.84551-13.34565-3.45246-13.34565-3.45246-5.96636,15.912-22.50481,11.17569l5.91266-19.70582Z" transform="translate(-622 -81.99622)"/><path id="Path_16" data-name="Path 16" class="cls-7" d="M731.86713,473.24651s5.78733,1.76716,7.50712,19.59968a15.3134,15.3134,0,0,0,.63934,3.13536,21.86753,21.86753,0,0,1,1.0945,8.93292,4.34753,4.34753,0,0,1-8.2807.98329l-6.77709-15.79945a25.59914,25.59914,0,0,0-11.97736,11.97744s-8.98279,11.97745-13.47473,7.48543l16.71873-39.42444Z" transform="translate(-622 -81.99622)"/><path id="Path_17" data-name="Path 17" class="cls-8" d="M974.293,648.6296c1.303,9.74614.49356,28.68471-24.295,32.47861a31.61175,31.61175,0,0,1-11.38032-.37469c-8.95079-1.918-29.15407-5.8244-41.92047-5.09046a24.26687,24.26687,0,0,0-2.75435.32989,271.6249,271.6249,0,0,1-31.90452,3.20436h-.0153c-1.34767.0601-2.69426.08952-4.07268.12019-12.56052.23913-26.09534-.65854-36.725-4.19155a17.442,17.442,0,0,0-5.32952-.88354c-5.10584-.07547-16.03475-.37469-26.96366-1.46662,0,0,38.1918,30.84062,56.367,79.43827a18.46156,18.46156,0,0,0,1.57151,3.23379,67.42071,67.42071,0,0,0,19.18027,19.55238q1.078.71868,2.20055,1.43727a24.76393,24.76393,0,0,1,9.64133,11.25241c3.2785,7.75522,5.015,19.56386-6.61726,30.30484,0,0-12.51571,8.35367-25.49689,31.73953a29.46863,29.46863,0,0,1-6.36267,7.99435c-4.34756,3.80281-11.18334,7.8-19.04338,5.18,0,0-2.99473,8.98279-10.48515,2.99465,0,0-1.49736,11.97744-10.48515,5.98806a4.48317,4.48317,0,0,1-3.2632,1.872,5.27663,5.27663,0,0,1-1.28758-.01538,5.14938,5.14938,0,0,1-4.21676-5.93709q.02365-.13873.05463-.27605l.47951-2.38091a14.65047,14.65047,0,0,1-6.51236-1.60218c-2.29015-1.39247-3.66857-3.96389-.80808-8.78838a12.54812,12.54812,0,0,1,3.74271-3.51763l7.12611-5.09046a38.72142,38.72142,0,0,0,4.25156-3.51763,37.47215,37.47215,0,0,0,4.53674-5.22471,19.876,19.876,0,0,0,1.37718-2.00621c.165-.25576.31452-.51151.46421-.74806.25567-.38359.49355-.80816.71863-1.21219a1.7804,1.7804,0,0,1,.13424-.22508c.20963-.38359.41941-.794.629-1.19815.08944-.165.165-.34394.25567-.5115.46421-.92834.88363-1.886,1.257-2.85917.20963-.5396.41942-1.09325.59845-1.6316s.35932-1.10738.5243-1.66228.33-1.12267.46421-1.69169c1.46662-5.88192,3.44349-13.12954,5.94326-20.64564,3.62253-10.85477-10.25507-29.91227-21.799-43.28219a133.122,133.122,0,0,0-22.53167-20.70572c-9.53644-6.94708-26.28982-20.75053-45.49819-43.80642,0,0-12.7255-6.73736-20.96015-17.9655l-6.603-6.67727-2.94994-2.99465-17.26224-12.75618L672.144,650.292l23.95489-25.44585,74.85673-20.96023,30.33161-2.18526s7.09676-3.8028,46.02234-2.30161l-3.23386-6.45227a46.89452,46.89452,0,0,0-11.50816-14.74709A161.15044,161.15044,0,0,1,820.17074,566.671l-7.28844-7.69513-34.43364-73.3607s-25.44585-28.44558-31.44031-22.45752l-17.96557,11.97745-31.44031-14.97085-.748-5.24258-.02935.01538-3.758.77873a3.97031,3.97031,0,0,1-3.38339-.0601,1.628,1.628,0,0,1-.25568-.19433c-.08944-.08951-.18028-.179-.26988-.28385a2.34916,2.34916,0,0,1-.25567-.37469,3.0713,3.0713,0,0,1-.28393-.62912c-.97306-2.88984-2.64946-9.92643-3.65327-14.28288a4.71188,4.71188,0,0,0-3.51888-3.60848,3.853,3.853,0,0,1-.5243-.13423,4.27422,4.27422,0,0,1-.569-.19433,3.99711,3.99711,0,0,1-.59845-.25576,4.97936,4.97936,0,0,1-.61374-.32989c-.22508-.12019-.43471-.25575-.65854-.404-.0153,0-.02935-.01537-.0448-.02942A14.57478,14.57478,0,0,1,675.7128,432.33a32.41029,32.41029,0,0,1-5.061-9.59653s-5.98806-23.95488,17.96557-28.44558,49.40574-11.97744,49.40574-11.97744,22.45752,2.99465,22.45752,4.492c0,1.18277,11.13869,7.92013,15.86976,10.73458l2.09582,1.24286S787.429,404.768,827.8519,404.768c0,0,15.256-1.39247,40.43839,21.21466a48.96132,48.96132,0,0,0,5.86912,4.52144,149.447,149.447,0,0,1,54.00148,65.5901c16.42341,39.16486,29.659,73.00138,33.38643,82.612.629,1.647,1.34767,3.23378,2.11111,4.82066,3.42819,7.00717,13.72931,30.42245,10.68978,52.81863A45.65327,45.65327,0,0,0,974.293,648.6296Z" transform="translate(-622 -81.99622)"/><path id="Path_18" data-name="Path 18" class="cls-9" d="M707.33684,462.39946s5.98806-7.48542,13.47473-2.99465c0,0-7.48542-1.49737-11.97736,4.492Z" transform="translate(-622 -81.99622)"/><path id="Path_19" data-name="Path 19" class="cls-10" d="M718.56494,585.914s-22.969-20.21343-37.95907-49.12322a58.41567,58.41567,0,0,1-1.41417-50.65124c3.76831-8.45084,8.82295-17.32749,15.22277-23.58277a8.57371,8.57371,0,0,1,9.54409-1.6917l19.78,8.99044a17.92719,17.92719,0,0,1,10.26912,13.2395c.88363,5.09554,1.59586,11.0491.94747,14.61411a2.5497,2.5497,0,0,1-4.24907,1.3682c-1.459-1.36687-3.22746-3.98051-4.65568-8.98021,0,0-1.49736,0-2.99473-7.48543a10.22941,10.22941,0,0,1-5.98806-5.98806s1.49737,10.48523-7.48542,16.46822c0,0-1.49737,11.97744-7.48542,16.46821a271.36954,271.36954,0,0,0,57.762,50.71259L748.50913,578.43Z" transform="translate(-622 -81.99622)"/><path id="Path_20" data-name="Path 20" class="cls-9" d="M744.71411,459.70654l10.28708-23.59175s4.07268-6.864-11.93007-21.184c0,0-2.10222-4.58794,2.82974-3.51639,0,0,4.93321,1.07023,1.97047-11.45313s-10.55429-8.48916-10.55429-8.48916-6.17475,2.27609-2.14046,9.86633c0,0-6.34613.68921-5.44846-5.8308s7.07366-8.79478,12.00562-7.72322,14.24332,12.90578,9.273,26.2885l-1.41417,1.75944s10.72553,10.07479,9.82677,16.5948S750.3736,452.6712,744.71411,459.70654Z" transform="translate(-622 -81.99622)"/><path id="Path_21" data-name="Path 21" class="cls-9" d="M735.45637,400.86147s7.81149-5.83338,8.2526,3.99464c0,0-.43986-6.83328-8.18361-3.611" transform="translate(-622 -81.99622)"/><path id="Path_22" data-name="Path 22" class="cls-9" d="M703.59417,415.24034c-4.49194-1.49737-17.96558,1.49736-20.96015,8.98279a15.47156,15.47156,0,0,1-6.91648,8.09916,13.02219,13.02219,0,0,0,1.422,1.52671,11.26234,11.26234,0,0,0,1.303,1.078c.0153.01537.02934.02942.0448.02942a6.53482,6.53482,0,0,0,.65854.404,4.97936,4.97936,0,0,0,.61374.32989,3.996,3.996,0,0,0,.59845.25575,4.27319,4.27319,0,0,0,.56894.19434,3.855,3.855,0,0,0,.52431.13423,4.71189,4.71189,0,0,1,3.51888,3.60848c1.00256,4.35645,2.6852,11.393,3.65327,14.28288a3.07076,3.07076,0,0,0,.28393.62912,2.3485,2.3485,0,0,0,.25567.37469c.08944.10482.18029.19433.26988.28385a1.628,1.628,0,0,0,.25568.19433,3.97031,3.97031,0,0,0,3.38339.0601l3.758-.77873.02934-.01538s4.49194-1.49736,1.49737-4.492a3.71906,3.71906,0,0,1,.12144,1.583,1.569,1.569,0,0,1-2.93074.37079l-9.9162-19.17129h4.49194C705.09154,433.20584,708.08611,416.73762,703.59417,415.24034Z" transform="translate(-622 -81.99622)"/><path id="Path_23" data-name="Path 23" class="cls-11" d="M690.10787,432.56646s-.87207-7.12229,11.058-7.12229C701.16587,425.44417,699.46013,435.66983,690.10787,432.56646Z" transform="translate(-622 -81.99622)"/><path id="Path_24" data-name="Path 24" class="cls-9" d="M689.91725,433.257s-.86052-5.5354,8.44694-5.83463C698.36434,427.42235,697.29154,435.44223,689.91725,433.257Z" transform="translate(-622 -81.99622)"/><path id="Path_25" data-name="Path 25" class="cls-12" d="M755.67366,566.97283l4.18507-6.69522a271.37882,271.37882,0,0,1-57.762-50.71259c5.98806-4.492,7.48542-16.46821,7.48542-16.46821,8.98279-5.98806,7.48542-16.46822,7.48542-16.46822a10.22941,10.22941,0,0,0,5.98806,5.98806c1.49737,7.48543,2.99473,7.48543,2.99473,7.48543,1.42822,4.99837,3.19672,7.61326,4.65568,8.98021a2.55737,2.55737,0,0,0,3.10337.3043c-2.716.29024-6.26558-10.78063-6.26558-10.78063-4.49194-4.492-1.49737-8.98279-1.49737-8.98279-5.98806,1.49737-8.98279-5.98806-8.98279-5.98806H714.069c-2.99473,16.46821-11.97736,16.46821-11.97736,16.46821,4.49194,4.492-4.4907,20.96024-4.4907,20.96024C705.09148,533.51476,755.67241,566.97283,755.67366,566.97283Z" transform="translate(-622 -81.99622)"/><g id="Group_2" data-name="Group 2"><path id="Path_26" data-name="Path 26" class="cls-9" d="M726.77158,471.64432a28.97555,28.97555,0,0,1,3.02283,5.72723c8.98279,22.45752,1.41417,19.72627,1.41417,19.72627l1.87448,2.57657a2.477,2.477,0,0,0,1.87323-1.96533c.64824-3.565-.064-9.51724-.94747-14.6141A17.8575,17.8575,0,0,0,726.77158,471.64432Z" transform="translate(-622 -81.99622)"/></g><g id="Group_3" data-name="Group 3"><path id="Path_27" data-name="Path 27" class="cls-9" d="M752.25177,457.90868c-5.988,0-23.2055,17.21752-23.2055,17.21752l17.96558-11.97744c5.98806-5.98806,31.44031,22.45752,31.44031,22.45752L812.8858,558.967l7.28844,7.69513A161.15414,161.15414,0,0,0,832.571,578.19072a46.89438,46.89438,0,0,1,11.50816,14.74709l2.941,5.86919,2.53817-2.57524c-4.49194-20.37458-32.93767-41.00742-32.93767-41.00742l-37.42837-71.86208S758.24124,457.90868,752.25177,457.90868Z" transform="translate(-622 -81.99622)"/><path id="Path_28" data-name="Path 28" class="cls-13" d="M843.66616,599.26083l1.40652,1.52547,1.40653-1.4283C845.52925,599.3235,844.58053,599.289,843.66616,599.26083Z" transform="translate(-622 -81.99622)"/></g><path id="Path_29" data-name="Path 29" class="cls-14" d="M678.89123,510.30918s-1.49737-32.9376,22.45752-46.41623c0,0,5.73753-.93724,16.417,3.24276l-13.80985-6.27448a8.57369,8.57369,0,0,0-9.54409,1.69169c-6.405,6.25537-11.45447,15.13194-15.22278,23.58277a58.41572,58.41572,0,0,0,1.41417,50.65125c14.50414,27.97505,36.47966,47.80488,37.88493,49.058l3.9166-3.18773S674.39928,535.76011,678.89123,510.30918Z" transform="translate(-622 -81.99622)"/><path id="Path_30" data-name="Path 30" class="cls-15" d="M670.41609,421.49944c.12784.77358.24038,1.22624.24038,1.22624a32.41032,32.41032,0,0,0,5.06105,9.59653c.22757.28385.45515.54476.68148.789l1.21219-2.03439c-2.77855-1.38225-6.67594-10.09142-6.67594-10.09142Z" transform="translate(-622 -81.99622)"/><path id="Path_31" data-name="Path 31" class="cls-9" d="M888.49193,591.15533s-35.931,4.492-38.92573,13.4748c0,0-55.394,0-61.37685,5.98806l10.48515-11.97744,47.90852-1.49737S869.029,589.658,888.49193,591.15533Z" transform="translate(-622 -81.99622)"/><path id="Path_32" data-name="Path 32" class="cls-9" d="M849.56619,604.62749s20.96016-2.99465,31.44031,5.98806c0,0-11.97736-10.48523-31.44031-8.98279Z" transform="translate(-622 -81.99622)"/><path id="Path_33" data-name="Path 33" class="cls-16" d="M731.29164,466.89148s-7.48542-1.49736-11.97736,0c0,0,5.98806-7.48542,11.97736,0" transform="translate(-622 -81.99622)"/><path id="Path_34" data-name="Path 34" class="cls-9" d="M876.5144,788.77727s7.48542,19.46287-7.48542,28.44558c-12.18715,7.31154-22.391,24.55076-25.76428,30.70247a35.55969,35.55969,0,0,1-6.98156,9.11961c-2.88984,2.66733-6.63006,5.093-10.67184,5.093-8.98279,0-2.99473-7.48542-2.99473-7.48542-2.98068,2.9806-2.996,5.62624-2.66741,7.075a1.9179,1.9179,0,0,0,1.34,1.436c7.47387,2.03056,13.953-1.80291,18.12541-5.45744a29.46848,29.46848,0,0,0,6.36267-7.99435c12.97993-23.38586,25.4969-31.73953,25.4969-31.73953,11.636-10.73458,9.89575-22.547,6.61725-30.30484a24.76387,24.76387,0,0,0-9.64133-11.25241,73.158,73.158,0,0,1-7.99427-5.84484h0C873.92894,782.29816,876.5144,788.77727,876.5144,788.77727Z" transform="translate(-622 -81.99622)"/><path id="Path_35" data-name="Path 35" class="cls-17" d="M812.13656,854.65126s-4.49069,10.34326,0,12.659l-2.99473-2.17378S807.64587,862.13668,812.13656,854.65126Z" transform="translate(-622 -81.99622)"/><path id="Path_36" data-name="Path 36" class="cls-17" d="M794.17105,859.14327s-4.49069,10.34327,0,12.659l-2.99473-2.17378S789.68036,866.6287,794.17105,859.14327Z" transform="translate(-622 -81.99622)"/><path id="Path_37" data-name="Path 37" class="cls-17" d="M801.65775,857.64594s-4.49195,13.338,0,15.65241l-2.99474-2.17378S797.16565,865.13136,801.65775,857.64594Z" transform="translate(-622 -81.99622)"/><g id="Group_4" data-name="Group 4"><path id="Path_38" data-name="Path 38" class="cls-9" d="M792.9499,847.40109h0l-5.35137,3.822a12.4968,12.4968,0,0,0-3.74271,3.51763c-6.153,10.39056,7.32044,10.39056,7.32044,10.39056C774.70945,860.64059,792.9499,847.40109,792.9499,847.40109Z" transform="translate(-622 -81.99622)"/><path id="Path_39" data-name="Path 39" class="cls-9" d="M820.03251,861.99857c-1.08685,2.85659-4.9,4.63008-4.9,4.63008-8.98279,0-3.556-11.00688-3.556-11.00688-3.55728,5.46126-2.42953,9.50959-2.42953,9.50959,0,4.492-4.49194,5.98806-4.49194,5.98806-8.98279,1.49737-3.18267-13.15256-3.18267-13.15256-4.68,9.30371-2.39363,13.45178-2.39363,13.45178-11.56575,3.29388-4.9037-12.27534-4.9037-12.27534-1.49737,1.49737-2.99473,5.98806-2.99473,5.98806l-.48076,2.38091a4.98693,4.98693,0,0,0,5.45736,6.22212,4.50129,4.50129,0,0,0,3.25805-1.86558c8.98279,5.988,10.48515-5.98806,10.48515-5.98806,7.19135,5.75408,10.23588-2.30162,10.4647-2.94994Z" transform="translate(-622 -81.99622)"/></g><path id="Path_40" data-name="Path 40" class="cls-18" d="M809.93587,823.6419A39.14361,39.14361,0,0,1,798.94936,842.578l.02045.0256s8.67467-4.42427,13.17051-22.38977,5.98806-20.96024,5.98806-20.96024,2.99473-10.48523-8.98279-26.94829-31.44031-32.93759-31.44031-32.93759-40.4231-37.42837-47.90852-47.16047A89.08757,89.08757,0,0,1,708.8366,670.499s-18.78895-6.56863-22.1213-25.73993L678.276,654.81333l17.26224,12.751,9.55174,9.672c8.23465,11.22814,20.96015,17.9655,20.96015,17.9655,19.211,23.0534,35.9566,36.86317,45.493,43.79877A133.40114,133.40114,0,0,1,794.08,759.7076c11.54781,13.38147,25.41776,32.43382,21.799,43.28859C813.37936,810.51618,811.40124,817.7599,809.93587,823.6419Z" transform="translate(-622 -81.99622)"/><path id="Path_41" data-name="Path 41" class="cls-19" d="M853.65294,452.02552a63.8063,63.8063,0,0,0-1.81188,7.65033c-1.46662,8.18361-5.56865,25.511-15.67544,40.4384a18.83613,18.83613,0,0,0-3.26445,9.41749c-.61375,9.94048-3.09947,31.75483-13.27915,44.19516a47.6877,47.6877,0,0,0-4.836,7.24629c-6.63255,12.01967-9.70142,27.33828-10.92891,35.30322a10.55236,10.55236,0,0,1-2.54457,5.405c0,.01538,0,.01538-.02934.01538a10.38112,10.38112,0,0,1-3.20436,2.47042l-2.11111,1.06258a25.27035,25.27035,0,0,0-7.32044,5.44979c-5.58394,6.04815-20.4961,18.90921-45.9329,18.13048a80.33345,80.33345,0,0,0-9.86625.25576c-12.91469,1.19814-42.639,4.80653-44.97389,12.9953a18.01648,18.01648,0,0,0-1.16739,2.72485,16.946,16.946,0,0,0,2.66476,16.738s-.0601.569-.165,1.37718c-.49356,3.50358-2.15591,11.43784-5.809-4.29636,0-.02942-.0153-.04472-.0153-.07547,0,0-.0153,0-.0448.03067-.10489.04472-.44876.23913-.95776.53835-.29923.19434-.65854.43479-1.06266.71864h-.0153c-2.82974,2.02159-7.41643,6.33333-6.22843,12.54647a6.82993,6.82993,0,0,0,2.395,3.937l4.07269,3.39877a22.67534,22.67534,0,0,0,6.85638,3.87695c4.62634,1.66227,11.85718,5.15056,9.05818,10.01594h-.01529a4.90068,4.90068,0,0,1-.5844.86825l-2.99473,1.49737a17.98464,17.98464,0,0,1-.12019,3.99713v.01538c-.29923,2.00622-1.078,4.1327-2.97928,4.68635a1.6995,1.6995,0,0,1-.37462.08952,1.31281,1.31281,0,0,1-.23913.02942.8288.8288,0,0,1-.26987.02942,2.447,2.447,0,0,1-.56895-.01537c-.13424-.01538-.28393-.02943-.43346-.0601l-.25567-.04472a4.00852,4.00852,0,0,1-.40412-.10481.44148.44148,0,0,1-.14953-.02942c-.18029-.0601-.35932-.12019-.55365-.19433a1.11789,1.11789,0,0,1-.165-.0601c-.165-.06009-.33-.13424-.49355-.20971-.20963-.08951-.43346-.2097-.65855-.32989-.28517-.14961-.56894-.31452-.86816-.49356-.20963-.12018-.40412-.25575-.629-.404-.41942-.25576-.85288-.569-1.31709-.913l-8.98279-4.492-14.40315-4.11733a10.9967,10.9967,0,0,1-7.6657-8.05569,55.9631,55.9631,0,0,0-7.71051-18.15734,8.76409,8.76409,0,0,1-.5115-9.05818l13.66906-25.511a50.25207,50.25207,0,0,1,18.87854-19.69177c4.52145-2.66476,10.5095-6.01873,18.2954-10.12076a112.08906,112.08906,0,0,0,23.62491-16.66254c12.35089-11.30361,33.96959-28.38681,50.13982-26.36522,0,0-2.6955-41.75548,9.80616-69.049a20.37884,20.37884,0,0,0,1.00257-2.76965,19.49706,19.49706,0,0,0,.63934-6.51236c-.73393-10.74988-.38367-36.70974,16.99236-56.41173a41.28832,41.28832,0,0,1,3.8629-3.698c.344-.28518.73393-.59845,1.12275-.913a46.06662,46.06662,0,0,1,4.20692-3.00878c.20963-.13424.43471-.2698.65855-.404a39.15144,39.15144,0,0,1,6.13774-3.08417,7.23935,7.23935,0,0,1,.73394-.2698,5.60028,5.60028,0,0,1,.70333-.25575c.20963-.07547.41942-.14961.62905-.20971a28.45723,28.45723,0,0,1,7.1606-1.3618c.01529-.01537.02934-.01537.06009,0a.014.014,0,0,1,.01264-.01537h.00266a24.80337,24.80337,0,0,1,4.20692.10481h.0153c.26988.02942.55365.06009.82352.10481s.56895.07415.83883.13424a24.82964,24.82964,0,0,1,3.74271.92834c.26988.08952.55365.18029.83883.28385a29.97886,29.97886,0,0,1,4.58153,2.15583c.31452.18028.629.37469.92827.569a4.77492,4.77492,0,0,1,.5396.344c.23913.14961.4795.31452.71863.4795q.44885.29161.895.62912C857.99535,430.25713,855.60031,445.72161,853.65294,452.02552Z" transform="translate(-622 -81.99622)"/><path id="Path_42" data-name="Path 42" class="cls-20" d="M822.44786,411.7495h0l-7.34214,1.41674a45.32872,45.32872,0,0,0-17.94,11.80481c-17.37852,19.69177-17.72129,45.6695-16.98986,56.40791a19.18,19.18,0,0,1-1.65455,9.28966c-12.49527,27.29738-9.80241,69.049-9.80241,69.049-16.169-2.02159-37.79534,15.05654-50.14482,26.37162A112.5235,112.5235,0,0,1,694.96058,602.753c-7.79994,4.09945-13.7752,7.4496-18.30569,10.11186a50.428,50.428,0,0,0-18.86825,19.6828l-13.67187,25.51609a8.76539,8.76539,0,0,0,.50511,9.05561,56.1598,56.1598,0,0,1,7.71425,18.15733,10.98909,10.98909,0,0,0,7.66055,8.0557l14.40565,4.11607,8.98279,4.492a12.39149,12.39149,0,0,0,5.92422,2.845l.66619.01023a3.47787,3.47787,0,0,0,.79527-.14321c-.647-.99741-8.7961-4.84876-23.85389-11.6936-16.46822-7.48542-17.21745-26.20023-17.21745-26.20023s-2.99473-23.95489,22.45752-41.92039c0,0,29.94295-17.9655,50.9031-35.931a123.02612,123.02612,0,0,1,44.91379-23.95488l5.98806-1.49737s-2.99473-49.40581,11.97737-74.85673C785.93636,488.59973,776.616,445.68833,822.44786,411.7495Z" transform="translate(-622 -81.99622)"/><path id="Path_43" data-name="Path 43" class="cls-21" d="M840.58215,417.4857a28.30446,28.30446,0,0,0-13.91724-5.62624c.28892.20206,27.35108,19.20329,19.90655,38.56384,0,0-4.49194,35.931-17.96558,46.41623,0,0-2.99473,0-1.49737,13.47481,0,0-4.49194,32.93759-14.97084,41.92038,0,0-16.46822,26.94829-17.96558,41.92039,0,0-26.94822,32.9376-55.394,25.44585,0,0-44.91379,2.99466-56.89116,23.95489,0,0-3.49343,8.63369.5,15.54494h0c3.99074,17.39008,9.9738,15.894,9.9738,15.894C704.3381,673.49747,689.366,661.52,689.366,661.52c-7.48543-8.98279-1.49737-19.46286-1.49737-19.46286,2.33869-8.18362,32.0553-11.80224,44.97264-12.99531a80.57826,80.57826,0,0,1,9.86126-.25575c25.44585.78131,40.354-12.07461,45.93415-18.12533a25.31729,25.31729,0,0,1,7.31919-5.451l2.12266-1.06133a10.65149,10.65149,0,0,0,5.77577-7.892c1.49987-9.695,5.72208-30.27924,15.76238-42.55208,10.17328-12.43393,12.66541-34.25593,13.27665-44.20156a18.86286,18.86286,0,0,1,3.26961-9.41883c10.10164-14.9184,14.19336-32.24331,15.66778-40.43457a63.99869,63.99869,0,0,1,1.817-7.6401C855.60544,445.72672,857.99533,430.25592,840.58215,417.4857Z" transform="translate(-622 -81.99622)"/><path id="Path_44" data-name="Path 44" class="cls-9" d="M692.5527,695.84762c-2.53177-2.41541-8.70791-7.49308-19.64947-11.87131,0,0-2.99473-7.48542-8.98279-8.98279,0,0,11.97737-16.46821,7.48543-25.44585A44.99206,44.99206,0,0,1,660.92072,676.496s8.98279,0,10.48515,8.98279c0,0,20.71462,6.52126,22.33483,14.49134l.06134-.89509A4.07139,4.07139,0,0,0,692.5527,695.84762Z" transform="translate(-622 -81.99622)"/><path id="Path_45" data-name="Path 45" class="cls-9" d="M697.45383,693.58947h-.0153s-.5844-8.11454-15.55524-11.1092c0,0-1.49737-4.492-8.98279-8.98278,0,0,1.872-13.8929,8.39839-13.68194-2.82975,2.02159-7.41644,6.33332-6.22844,12.54646a6.82992,6.82992,0,0,0,2.395,3.937l4.07268,3.39876a22.67539,22.67539,0,0,0,6.85639,3.87695C693.02448,685.23455,700.25548,688.72276,697.45383,693.58947Z" transform="translate(-622 -81.99622)"/><path id="Path_46" data-name="Path 46" class="cls-9" d="M777.70285,704.93649s16.46821,20.96023,44.91379,20.96023C822.61664,725.89672,803.1487,724.39935,777.70285,704.93649Z" transform="translate(-622 -81.99622)"/><path id="Path_47" data-name="Path 47" class="cls-9" d="M728.00423,473.62759s-5.873-5.45743-11.0235-6.84608c0,0,9.23331,4.06621,11.0235,5.82955Z" transform="translate(-622 -81.99622)"/><path id="Path_48" data-name="Path 48" class="cls-9" d="M864.53707,679.06611v-1.07795c-.895-.04472-40.45244-1.52671-43.41642-4.492-2.99473-2.99465-34.435-1.49737-34.435-1.49737s44.91379,44.91379,56.89115,80.84612c0,0,10.5248,18.789,22.47157,22.12763a67.42075,67.42075,0,0,1-19.18027-19.55239,18.46072,18.46072,0,0,1-1.5715-3.23378c-18.17521-48.59766-56.367-79.43827-56.367-79.43827,10.92891,1.09325,21.85782,1.39247,26.96366,1.46662a17.442,17.442,0,0,1,5.32952.88354c.46421.14961.95776.31452,1.46662.46413a3.669,3.669,0,0,1,.43346.12019c7.44062,2.08044,18.34019,3.18906,28.28059,3.60848Z" transform="translate(-622 -81.99622)"/><path id="Path_49" data-name="Path 49" class="cls-9" d="M974.293,648.63342a45.66,45.66,0,0,1,.06009-12.292c3.03937-22.39743-7.26159-45.81271-10.68978-52.81863-.76718-1.58688-1.48207-3.17369-2.11111-4.82066-3.72742-9.61191-16.963-43.44718-33.38644-82.612a149.44689,149.44689,0,0,0-54.00147-65.5901,48.96132,48.96132,0,0,1-5.86912-4.52144c-25.18237-22.60713-40.43839-21.21466-40.43839-21.21466-40.4231,0-49.40589-5.98806-49.40589-5.98806l-2.09581-1.24286-.76718-.45773-1.51782,2.18783a150.57682,150.57682,0,0,0,54.53718,7.74757,57.6687,57.6687,0,0,1,31.93136,17.40545,61.60321,61.60321,0,0,0,9.70268,8.89452,188.0095,188.0095,0,0,1,37.71479,36.57932c20.96015,26.94829,41.92046,94.31961,41.92046,94.31961s22.45752,44.91379,19.46279,64.37665a61.51417,61.51417,0,0,0,0,25.44586s2.99473,25.44585-32.93767,20.96023-62.88062,0-71.862,2.99465l.17779,1.06515a273.262,273.262,0,0,0,29.22556-3.08549,24.26917,24.26917,0,0,1,2.75435-.3299c12.7703-.73393,32.967,3.17369,41.92046,5.09047a31.61182,31.61182,0,0,0,11.38033.37469C974.78654,677.31438,975.59461,658.37574,974.293,648.63342Z" transform="translate(-622 -81.99622)"/><path id="Path_50" data-name="Path 50" class="cls-22" d="M778.45087,398.77083l-.44876.04472-19.9565,2.21592a8.05568,8.05568,0,0,1-8.18361-4.611,14.16672,14.16672,0,0,0-12.7703-8.32425,4.92172,4.92172,0,0,0-4.58154,2.63534c-5.37041,10.22947-19.95775,10.16556-28.47633,9.1477a25.582,25.582,0,0,0-14.8672,2.69418c-17.50137,9.1477-18.44509,19.014-18.50518,20.06131v.08952c-23.95489-29.94294-8.89319-63.23986,29.94294-71.86208a40.46114,40.46114,0,0,1,8.823-.95773c1.18284,0,2.35024.04476,3.51763.14961,1.22749.10486,2.45513.25576,3.66857.46417,1.10855.18029,2.2313.40408,3.32455.67388.5844.13428,1.15084.28385,1.73649.44884.19433.04475.38367.10485.5844.16494h.0153c.37461.10486.73393.20971,1.1073.3299C754.04722,361.68773,778.45087,398.77083,778.45087,398.77083Z" transform="translate(-622 -81.99622)"/><path id="Path_51" data-name="Path 51" class="cls-23" d="M778.45219,398.77085l-.44876.04472-1.60226-.569s-27.93672-38.83622-55.96289-45.73728c-.0153-.01534-.0153-.01534-.02935-.01534l1.84124-.68921h.01529c.37462.10485.73393.20971,1.1073.32989C754.04839,361.68768,778.45219,398.77085,778.45219,398.77085Z" transform="translate(-622 -81.99622)"/><path id="Path_52" data-name="Path 52" class="cls-24" d="M670.66673,422.64008c-3.29005-9.77939-21.712-74.02306,52.71249-70.50793-7.31669-2.27988-18.60352-4.50482-26.516-3.51509a38.863,38.863,0,0,0-27.2195,16.34408c-20.69683,31.56432-9.79477,44.58515-3.74786,51.92478,1.771,2.14818,3.46908,4.226,4.75932,5.83845C670.65783,422.72445,670.65783,422.69245,670.66673,422.64008Z" transform="translate(-622 -81.99622)"/><g id="Group_5" data-name="Group 5"><path id="Path_53" data-name="Path 53" class="cls-25" d="M699.666,399.73627h0Z" transform="translate(-622 -81.99622)"/><path id="Path_54" data-name="Path 54" class="cls-26" d="M758.03926,401.03922l20.41165-2.26837s-.12019-.18161-.33887-.50253l-.41051-.24552s-23.95489,4.49077-26.94821-4.492-14.97085-13.47481-19.46279-7.48543c-4.32961,5.77328-7.62091,13.33542-29.14377,13.68194.629.0281,1.25949.0793,1.886.15344,8.51858,1.02293,23.09811,1.07663,28.47118-9.15535a4.923,4.923,0,0,1,4.57763-2.62644,14.16541,14.16541,0,0,1,12.7728,8.32683A8.06354,8.06354,0,0,0,758.03926,401.03922Z" transform="translate(-622 -81.99622)"/></g><path id="Path_55" data-name="Path 55" class="cls-27" d="M832.34871,677.23761s1.0767,46.26155,54.86839,89.297l-16.13824,96.8271s36.5794,13.98623,190.42939,4.30409c0,0-21.51645-88.22158-48.41362-126.95291,0,0,21.51645-18.28517,23.66846-61.3244l32.27648-2.152V674.009l-5.37947-3.22738h-7.53272Z" transform="translate(-622 -81.99622)"/><path id="Path_56" data-name="Path 56" class="cls-28" d="M1069.06262,674.73267s5.92546-.80042,5.39726-16.74051,17.94763-210.8103-23.2592-215.22435-35.683,184.04237-21.97676,220.24957C1029.22392,663.01613,1053.17755,661.52,1069.06262,674.73267Z" transform="translate(-622 -81.99622)"/><path id="Path_57" data-name="Path 57" class="cls-29" d="M1065.44646,671.84283s4.62884-.32225,4.134-14.3379,12.94028-183.747-19.2953-190.25934-27.89583,162.71-16.99236,195.34332C1033.29267,662.58649,1051.1827,660.951,1065.44646,671.84283Z" transform="translate(-622 -81.99622)"/><path id="Path_58" data-name="Path 58" class="cls-30" d="M1032.8374,704.73445l20.18283-.35034a12.91476,12.91476,0,0,0,12.62061-11.51581l1.6917-15.5181-32.12055,2.13538Z" transform="translate(-622 -81.99622)"/><path id="Path_59" data-name="Path 59" class="cls-31" d="M1036.17745,686.79709a15.535,15.535,0,0,0-.96541-7.31154h0s-10.48515,47.90845-32.93768,59.88589c0,0,36.426,60.29508,55.20336,112.99991-7.44577-26.98918-24.43314-82.93163-44.38059-111.65855C1013.09589,740.7128,1032.124,724.52718,1036.17745,686.79709Z" transform="translate(-622 -81.99622)"/><path id="Path_60" data-name="Path 60" class="cls-32" d="M985.31649,672.82359l-152.96778,4.41148s1.0767,46.26154,54.86839,89.297l-16.13824,96.8271a42.05393,42.05393,0,0,0,4.85906,1.335h0c13.51188-9.27944,21.78119-67.40331,23.95614-84.60413.335-2.652.86317-5.2592,1.34268-7.887,5.17093-28.28964-35.201-67.27032-35.201-67.27032C984.30627,713.92053,985.31649,672.82616,985.31649,672.82359Z" transform="translate(-622 -81.99622)"/><path id="Path_61" data-name="Path 61" class="cls-33" d="M855.55427,725.89668s32.93768,65.874,109.29178,44.91379C964.84605,770.81047,900.46806,775.30249,855.55427,725.89668Z" transform="translate(-622 -81.99622)"/><circle id="Ellipse_11" data-name="Ellipse 11" class="cls-34" cx="162.34557" cy="246.63623" r="14.22281"/><circle id="Ellipse_12" data-name="Ellipse 12" class="cls-35" cx="214.80753" cy="223.31686" r="17.96552"/><ellipse id="Ellipse_13" data-name="Ellipse 13" class="cls-36" cx="434.92014" cy="145.35161" rx="187.89116" ry="125.75989"/><path id="Path_62" data-name="Path 62" class="cls-37" d="M943.13776,182.61435v71.201l85.68216,67.57976,113.43845-42.23752-1.207-80.855L1043.301,158.47918Z" transform="translate(-622 -81.99622)"/><path id="Path_63" data-name="Path 63" class="cls-38" d="M943.88579,182.61435l85.68216,45.85747,112.23141-30.16927L1042.842,158.47918Z" transform="translate(-622 -81.99622)"/><path id="Path_64" data-name="Path 64" class="cls-39" d="M981.05591,256.41491" transform="translate(-622 -81.99622)"/><line id="Line_1" data-name="Line 1" class="cls-38" x1="322.48931" y1="101.22296" x2="517.98866" y2="115.70406"/><path id="Path_65" data-name="Path 65" class="cls-38" d="M1043.44546,159.07888l-13.27525,69.39036v92.92327" transform="translate(-622 -81.99622)"/><path id="Path_66" data-name="Path 66" class="cls-40" d="M1033.79266,232.69657v24.13516l22.92938-7.24118V226.66246Z" transform="translate(-622 -81.99622)"/><path id="Path_67" data-name="Path 67" class="cls-40" d="M1062.12831,238.97619v16.89528l12.06821-3.61995V235.35625Z" transform="translate(-622 -81.99622)"/><g id="Group_6" data-name="Group 6"><path id="Path_68" data-name="Path 68" class="cls-41" d="M1106.51261,141.09931a6.37433,6.37433,0,0,1,8.54621-2.868q.23624.11752.46218.25434c3.2593,1.90012,4.09173,5.62621,2.07786,9.071a6.4203,6.4203,0,0,1-11.35144-6.00214Q1106.37057,141.32155,1106.51261,141.09931Zm9.64508-11.84827,1.225-2.53053c2.37193-5.3564,7.24879-9.87655,15.16143-12.75231,7.06851-2.496,11.50816-4.77333,13.95424-8.96359,2.767-4.75159,1.63035-9.65534-4.18382-13.17043a19.16111,19.16111,0,0,0-11.09125-2.59319l1.18285-7.17087c4.37565-.44626,10.55555,1.15721,15.4925,4.033,10.71148,6.24,11.70249,15.67411,7.58,22.75421-3.689,6.33462-9.88686,8.837-17.45017,11.54394-6.92147,2.4551-10.79717,5.68759-13.28555,10.6016l-1.31708,2.47425Z" transform="translate(-622 -81.99622)"/></g><g id="Group_7" data-name="Group 7"><path id="Path_69" data-name="Path 69" class="cls-42" d="M1198.16254,264.665c-2.1929-4.32836-.80683-8.84976,3.2849-10.92509s8.43929-.4552,10.63359,3.87313c2.074,4.0918.982,8.61449-3.34624,10.80614a7.6837,7.6837,0,0,1-10.35435-3.29618Q1198.26407,264.89766,1198.16254,264.665Zm-5.72083-17.67783-1.77614-2.92433c-3.9-5.96-5.29253-13.92615-2.99848-23.91142,2.12391-8.86639,2.7364-14.90946.07289-20.17253-3.02283-5.96507-8.78065-8.04547-16.20864-4.4281a23.30417,23.30417,0,0,0-9.9738,9.608l-6.53921-5.94717c2.43718-4.76181,8.15677-10.01083,14.35586-13.15127,13.45178-6.81155,23.7387-1.58813,28.2411,7.3,4.02914,7.95342,2.48838,15.935.25567,25.44581-2.06631,8.695-1.32988,14.78288,2.04587,20.57021l1.66235,2.9806Z" transform="translate(-622 -81.99622)"/></g><g id="Group_8" data-name="Group 8"><path id="Path_70" data-name="Path 70" class="cls-43" d="M909.98153,221.012a5.81413,5.81413,0,0,1-3.60707-7.38908q.0782-.22752.17513-.448c1.33113-3.17369,4.60323-4.36161,7.95728-2.95376a5.85638,5.85638,0,0,1-4.04646,10.99158q-.24374-.08973-.47873-.20077ZM898.123,213.69279l-2.42953-.80811c-5.125-1.51013-9.79087-5.38712-13.32895-12.2012-3.09447-6.09931-5.68118-9.84588-9.76027-11.56061-4.62633-1.93847-8.92784-.33118-11.41232,5.34361A17.47726,17.47726,0,0,0,860.16,204.80592l-6.62615-.21993c-.92186-3.90637-.20338-9.68348,1.81314-14.49134,4.3744-10.42767,12.78684-12.44162,19.68147-9.55049C881.19552,183.131,884.194,188.44,887.5365,194.96c3.04077,5.9689,6.42276,9.09272,11.16289,10.76139l2.39363.8951Z" transform="translate(-622 -81.99622)"/></g><g id="Group_9" data-name="Group 9"><path id="Path_71" data-name="Path 71" class="cls-44" d="M986.38558,205.2036a6.17347,6.17347,0,0,1,6.08546-6.26024q.25519-.00363.50994.01385c3.64937.18668,6.00975,3.02665,5.81293,6.887a6.21822,6.21822,0,1,1-12.40318-.63935Zm3.04718-14.47855-.069-2.7236c-.335-5.662,1.85794-11.71787,7.39458-17.70468,4.97785-5.28479,7.8-9.21805,8.03658-13.90826.27238-5.31934-2.88094-9.03645-9.44435-9.47888a18.56029,18.56029,0,0,0-10.70008,2.68524l-2.16356-6.69776c3.56883-2.32464,9.599-3.68773,15.12678-3.40259,11.99017.62014,17.02951,8.30122,16.6229,16.22651-.36572,7.09032-4.59168,11.9966-9.90215,17.68294-4.868,5.18505-6.77709,9.68605-6.73355,15.02072l-.03574,2.71591Z" transform="translate(-622 -81.99622)"/></g></g></svg>