<svg id="Слой_1" data-name="Слой 1" xmlns="http://www.w3.org/2000/svg" xmlns:xlink="http://www.w3.org/1999/xlink" viewBox="0 0 724.50139 435.52276"><defs><style>.cls-1{fill:url(#Безымянный_градиент_3);}.cls-2{fill:url(#Безымянный_градиент_3-2);}.cls-3{fill:url(#Безымянный_градиент_3-3);}.cls-4{fill:#c1c1db;}.cls-5{fill:#fff;}.cls-6{fill:#ee9954;}.cls-10,.cls-6,.cls-7{stroke:#f3db8a;stroke-linejoin:round;stroke-width:5px;}.cls-7{fill:#eab788;}.cls-8{fill:#efe3d8;}.cls-9{fill:#e2a176;}.cls-10{fill:#f2b879;}.cls-11{fill:#f9bb41;}.cls-12{fill:#ffed83;}</style><linearGradient id="Безымянный_градиент_3" x1="1.43663" y1="439.95069" x2="1.99652" y2="440.47614" gradientTransform="matrix(346.60889, 0, 0, -235.95483, -4.9126, 103970.58435)" gradientUnits="userSpaceOnUse"><stop offset="0" stop-color="#89dff1"/><stop offset="1" stop-color="#ffb609"/></linearGradient><linearGradient id="Безымянный_градиент_3-2" x1="1.38139" y1="439.60967" x2="1.95703" y2="440.1243" gradientTransform="matrix(198.89453, 0, 0, -139.99756, 76.60596, 61712.42883)" xlink:href="#Безымянный_градиент_3"/><linearGradient id="Безымянный_градиент_3-3" x1="1.30368" y1="439.33329" x2="1.97378" y2="440.06145" gradientTransform="matrix(327.52881, 0, 0, -131.22131, 53.18408, 57924.13196)" xlink:href="#Безымянный_градиент_3"/></defs><title>посылка с крыльями</title><g id="Group_64" data-name="Group 64"><g id="Group_61" data-name="Group 61"><path id="Path_343" data-name="Path 343" class="cls-1" d="M375.64887,234.9459c7.81986-12.11008,21.0104-18.9439,33.8831-24.48586a444.15561,444.15561,0,0,1,42.5421-15.54231c29.27877-9.20241,59.16965-16.24487,88.83328-24.06172,29.43252-7.75584,58.78432-16.31178,86.75429-28.43759a294.35206,294.35206,0,0,0,40.32714-21.0713c12.21542-7.72833,24.033-16.90611,32.12939-29.0634A53.00516,53.00516,0,0,0,708.70365,53.894a60.47777,60.47777,0,0,0-18.327-33.6085C669.78237,1.09158,638.9882.266,614.911,13.3876,590.803,26.527,569.045,58.51774,587.72993,84.69016c7.56978,10.60454,20.61689,17.50334,33.74424,16.80174a44.12439,44.12439,0,0,0,34.11805-19.78532c6.765-10.31818,8.51966-24.11975,2.939-35.37676-6.1596-12.42394-20.28729-16.1149-32.607-10.74819-12.83715,5.59205-23.69285,21.57314-17.97287,35.666A19.13437,19.13437,0,0,0,623.18176,83.03a14.25353,14.25353,0,0,0,14.268-8.32267c2.42829-5.05189,2.17172-11.42326-2.03382-15.47733-3.67126-3.54237-9.58534,1.784-5.891,5.34413,2.82707,2.72474,1.43468,7.50107-1.5745,9.60288-3.985,2.78083-9.29561-.53632-11.6033-3.97239-7.28967-10.86038,4.99975-25.1441,15.21546-28.29681,5.1463-1.58723,10.74231-1.27325,15.13283,2.06637,3.65348,2.77783,5.71613,7.14384,6.63719,11.54721,2.27694,10.882-2.39321,21.63716-10.49343,28.903-8.414,7.54732-20.39827,11.24909-31.425,7.93986-10.71972-3.21769-19.83228-12.20161-22.202-23.27352-2.79633-13.07342,4.0513-26.51872,12.803-35.8392A66.74191,66.74191,0,0,1,632.536,14.73376c11.6182-3.24725,24.05464-3.33085,35.46816.78724a51.19854,51.19854,0,0,1,25.35,20.664c6.06735,9.55267,9.24468,20.85292,7.823,32.17083-1.52116,12.114-8.8017,22.74224-17.417,31.02347-9.59111,9.2191-21.02913,16.27922-32.61755,22.689a328.42093,328.42093,0,0,1-37.26415,17.50429c-25.37448,10.12731-51.74354,17.524-78.14526,24.42881-26.6732,6.97555-53.503,13.41683-79.88793,21.45122C442.531,189.5097,429.33447,193.98094,416.382,199.084c-12.03621,4.74186-24.19446,9.80852-34.53846,17.72964a55.17069,55.17069,0,0,0-12.859,13.79076c-2.78167,4.308,3.88579,8.64734,6.66457,4.34439Z" transform="translate(-4.49861 -4.54422)"/></g><g id="Group_62" data-name="Group 62"><path id="Path_344" data-name="Path 344" class="cls-2" d="M309.96311,199.22765c24.9817-19.95841,57.78326-25.11167,88.3199-30.73915,15.85809-2.92245,31.77336-5.95324,47.10606-11.0414,14.98244-4.97213,30.14482-11.7991,41.14081-23.47532,10.98254-11.66036,15.84248-27.82847,9.62954-43.09223C489.8,75.25173,475.35371,65.22472,458.82152,63.0757c-16.36979-2.12835-35.46047,2.92245-46.90619,15.31108-10.85738,11.75093-13.1581,31.57553.29525,42.38678,10.9835,8.82945,27.65046,9.14524,39.82144,2.60174,6.64007-3.57,13.07643-10.2592,12.798-18.3289-.23615-6.82013-6.026-12.89036-12.73481-13.76325a10.67125,10.67125,0,0,0-8.99677,3.0219c-3.68711,3.564,1.94133,9.18463,5.6246,5.62448,3.013-2.91163,7.879,2.00344,8.1533,5.11675.54317,6.1775-6.81616,10.91455-11.71933,12.792-9.87531,3.77756-23.81873,2.8654-30.77952-6.05654-4.10223-5.25944-4.42006-12.3-2.4069-18.45682,2.17556-6.65473,7.2923-11.89363,13.16579-15.48717,12.49673-7.64473,28.79181-9.56841,42.57765-4.47917,12.5282,4.62475,22.67929,16.7418,23.315,30.34457.64143,13.715-8.611,25.07227-19.29728,32.55556-11.42313,7.99992-24.846,12.77529-38.1929,16.47021-13.61767,3.76976-27.53827,6.28381-41.42644,8.83725-27.25672,5.00948-55.63726,10.23362-79.19029,25.74829-2.96569,1.95227-5.8055,4.07473-8.58332,6.29065-1.69149,1.352-1.38351,4.21059,0,5.62448,1.64032,1.67275,3.95665,1.3333,5.6246,0Z" transform="translate(-4.49861 -4.54422)"/></g><g id="Group_63" data-name="Group 63"><path id="Path_345" data-name="Path 345" class="cls-3" d="M414.22855,270.602c5.42689-8.32958,16.27538-10.68129,25.45616-12.06774a366.282,366.282,0,0,1,39.92787-3.37907c27.34921-1.09913,54.72292-.26078,82.08414-.615,25.6743-.3326,51.45334-1.8017,76.70291-6.703a232.19023,232.19023,0,0,0,36.09229-9.92467c11.27178-4.15641,22.58777-9.06956,32.25238-16.31274,9.14427-6.85352,16.58721-15.67215,20.1888-26.64965,3.42525-10.44417,2.77374-22.328-3.31427-31.67883-10.958-16.83224-33.72935-22.23834-52.54545-19.11122-18.89969,3.1389-38.44274,17.49157-35.916,38.737,1.22807,10.32514,7.1902,20.15816,16.66407,24.87456a32.78074,32.78074,0,0,0,30.29737-.63867c9.236-5.1995,15.67-16.04511,14.64371-26.76472-.96142-10.04658-8.53312-18.84552-18.59749-20.72787-10.65294-1.99166-22.15294,5.28214-22.74632,16.66011-.56791,10.92236,10.84369,19.89643,21.00655,14.73932a13.6354,13.6354,0,0,0,7.53134-11.93687c.05525-5.11674-7.89842-5.12371-7.95367,0a5.99357,5.99357,0,0,1-6.38639,5.57283q-.21909-.01478-.43674-.04576c-3.6751-.63566-6.13222-4.801-5.8055-8.32952.356-3.86717,3.53048-7.256,7.10469-8.4978a13.05871,13.05871,0,0,1,10.92248,1.50062c7.42419,4.428,9.238,13.47581,5.74255,21.08607-3.81876,8.31474-12.25193,12.98874-21.26215,12.852A22.97864,22.97864,0,0,1,645.524,190.4967a23.68283,23.68283,0,0,1,.82544-23.0531c8.561-13.98655,28.60371-18.142,43.71828-15.52357,7.87872,1.36477,15.82086,4.34932,21.821,9.779a27.56782,27.56782,0,0,1,9.09238,23.182c-1.69942,20.89917-21.095,33.6341-38.50088,41.3103-41.18141,18.16169-87.3347,20.33533-131.68192,20.48584-24.07049.08072-48.154-.43891-72.21292.57175-11.91417.50089-23.82065,1.37763-35.65122,2.891-9.041,1.15619-18.4668,2.61351-26.36521,7.48924a29.13114,29.13114,0,0,0-9.19857,8.96325c-2.80353,4.301,4.08062,8.29216,6.86734,4.01474Z" transform="translate(-4.49861 -4.54422)"/></g></g><g id="Group_54" data-name="Group 54"><g id="Group_54-2" data-name="Group 54-2"><path id="Path_302" data-name="Path 302" class="cls-4" d="M75.37188,313.85574s-29.643-3.36136,7.73217-101.16492c0,0,20.95922-78.50442,105.30373-90.95494a209.22449,209.22449,0,0,0,25.03888-5.38542C262.97909,102.68961,407.02585,51.81392,410.762,75.02251c2.63321,16.35112-24.00948,18.39094-24.00948,18.39094s12.2075,10.702-33.66448,39.82046c0,0,9.3833,14.8682-53.85712,42.25288,0,0,12.13951,19.77835-49.76978,37.11743,0,0,14.93512,28.66293-35.977,31.56567,0,0,9.76023,20.596-15.676,24.03711,0,0,1.80176,20.67677-23.04325,19.65439,0,0,3.14875,27.66806-21.81926,14.70683,0,0-2.6224,24.06467-31.419,10.02893,0,0-6.72271,12.16618-18.04158-5.22995C103.48263,307.36329,98.32072,316.33045,75.37188,313.85574Z" transform="translate(-4.49861 -4.54422)"/><path id="Path_303" data-name="Path 303" class="cls-5" d="M409.30951,73.12334a5.03848,5.03848,0,0,0-.37981-1.26345c-17.36748-14.59467-148.65757,31.57751-195.48328,44.4915a209.21053,209.21053,0,0,1-25.03984,5.38542c-84.34042,12.45152-105.30253,90.955-105.30253,90.955-22.55726,59.02714-20.70241,83.64873-15.6868,93.89712a10.25268,10.25268,0,0,0,3.61528,4.17412,7.54166,7.54166,0,0,0,2.88809,1.19751c22.94884,2.47375,28.111-6.49437,28.111-6.49437.47134.72323.93091,1.37763,1.38447,2.00145.04517-.06888.067-.10624.067-.10624.39951.613.78725,1.18081,1.18075,1.721,9.72179,11.88864,15.41342,1.61377,15.41342,1.61377,28.79662,14.03574,31.418-10.02893,31.418-10.02893,24.96609,12.96123,21.82023-14.70683,21.82023-14.70683,24.845,1.02237,23.04325-19.6544,23.04325-19.6544,25.43647-3.444,15.676-24.0371,15.676-24.0371,50.91209-2.90281,35.976-31.56568,35.976-31.56568,61.91025-17.341,49.77074-37.11742,49.77074-37.11742,63.24066-27.38372,53.85616-42.25292,53.85616-42.25292,45.871-29.1185,32.88516-38.22049,32.88516-38.22049S411.94368,89.47446,409.30951,73.12334Z" transform="translate(-4.49861 -4.54422)"/><path id="Path_304" data-name="Path 304" class="cls-4" d="M194.13761,188.80323s96.8864.40246,133.08584-28.03513C327.22441,160.76816,298.78478,178.8304,194.13761,188.80323Z" transform="translate(-4.49861 -4.54422)"/><path id="Path_305" data-name="Path 305" class="cls-4" d="M254.747,211.0593s-58.16307,14.97157-96.29014,7.07886c0,0,50.47318,5.86069,103.25189-11.70961Z" transform="translate(-4.49861 -4.54422)"/><path id="Path_306" data-name="Path 306" class="cls-4" d="M212.02952,242.27078s-43.39445,6.1697-71.0771-7.71848c0,0,19.42605,16.20055,74.58716,9.47982Z" transform="translate(-4.49861 -4.54422)"/><path id="Path_307" data-name="Path 307" class="cls-4" d="M198.6492,265.934s-35.65026,7.872-67.8743-14.56317c0,0,19.1702,22.41156,68.68317,16.57351Z" transform="translate(-4.49861 -4.54422)"/><path id="Path_308" data-name="Path 308" class="cls-4" d="M173.31123,285.96231s-23.57273,3.35541-45.70093-15.34447c0,0,16.92473,19.32773,50.313,17.04977Z" transform="translate(-4.49861 -4.54422)"/><path id="Path_309" data-name="Path 309" class="cls-4" d="M121.51148,311.377s-10.78267-11.56985-10.2335-20.01156c0,0-4.72324,5.61962,9.12746,21.08018Z" transform="translate(-4.49861 -4.54422)"/><path id="Path_310" data-name="Path 310" class="cls-4" d="M103.48263,307.36329s-7.40666-8.364-8.308-18.7009c0,0-2.93037,9.2624,7.67524,19.188Z" transform="translate(-4.49861 -4.54422)"/><path id="Path_311" data-name="Path 311" class="cls-4" d="M151.84151,300.66524s-6.17257-.77242-7.59356-11.1802c0,0-1.8056,8.72314,7.60821,12.30491Z" transform="translate(-4.49861 -4.54422)"/><path id="Path_312" data-name="Path 312" class="cls-4" d="M356.11184,131.27768S266.869,171.19356,201.91927,155.77237c0,0,56.96575,10.23358,159.55435-28.60386Z" transform="translate(-4.49861 -4.54422)"/><path id="Path_313" data-name="Path 313" class="cls-4" d="M386.106,94.2813s-71.07229,27.36107-110.28162,17.92059c0,0,32.20146,5.10891,109.58687-19.251Z" transform="translate(-4.49861 -4.54422)"/></g><path id="Path_314" data-name="Path 314" class="cls-6" d="M6.99861,201.176V373.89047L126.38631,437.564V250.52258Z" transform="translate(-4.49861 -4.54422)"/><path id="Path_315" data-name="Path 315" class="cls-7" d="M126.78473,250.52258,308.25467,201.176V365.93188L126.78473,437.567Z" transform="translate(-4.49861 -4.54422)"/><path id="Path_316" data-name="Path 316" class="cls-8" d="M137.13147,260.37635l31.83631-8.65918.3935,29.84668L137.525,292.70663Z" transform="translate(-4.49861 -4.54422)"/><path id="Path_317" data-name="Path 317" class="cls-9" d="M214.0122,267.86557s-40.20318,40.26918-40.23681,70.19652c-.01177,10.96669,7.84941,20.58921,18.75988,21.70011,5.59217.56875,12.01074-1.17294,17.42274-8.95437,0,0,0,19.89841,16.71428,7.16354,0,0,8.7575,12.73493,29.4491-.79607,0,0,12.73385,7.16354,17.51018-10.34676a130.7406,130.7406,0,0,0,4.77538-31.04125Z" transform="translate(-4.49861 -4.54422)"/><path id="Path_318" data-name="Path 318" class="cls-8" d="M172.152,256.17171l16.38157-4.45454.20468,15.35822-16.38157,5.73379Z" transform="translate(-4.49861 -4.54422)"/><path id="Path_319" data-name="Path 319" class="cls-10" d="M6.99861,201.176l180.67406-38.99978L307.85626,201.176l-181.47,49.34654Z" transform="translate(-4.49861 -4.54422)"/><path id="Path_320" data-name="Path 320" class="cls-11" d="M49.97368,218.68629l-.3935,29.84669L86.989,263.65505l.548-29.1903Z" transform="translate(-4.49861 -4.54422)"/><path id="Path_321" data-name="Path 321" class="cls-12" d="M49.9787,218.69022l180.67405-44.57514,36.61264,11.93886-179.875,48.55149Z" transform="translate(-4.49861 -4.54422)"/><g id="Group_55" data-name="Group 55"><path id="Path_322" data-name="Path 322" class="cls-4" d="M197.96622,322.72542s-26.00318-14.62617,46.46824-90.19337c0,0,49.84256-64.17145,132.38724-42.84034a209.07416,209.07416,0,0,0,25.16188,4.77729c50.94548,6.67941,203.43791,15.83059,197.85655,38.6613-3.936,16.08835-29.273,7.60437-29.273,7.60437s7.08474,14.60647-46.50091,23.59237c0,0,2.86142,17.3479-66.05,17.98062,0,0,3.49228,22.941-60.28771,14.83872,0,0,2.61255,32.21515-45.42034,15.08862,0,0,.984,22.77071-23.79014,16.04806,0,0-6.3823,19.74886-28.8735,9.14529,0,0-7.8631,26.71259-25.82108,5.06365,0,0-11.77459,21.15009-32.84576-2.98052,0,0-10.92249,8.59425-14.58678-11.83453C226.39,327.67695,218.14612,333.93024,197.96622,322.72542Z" transform="translate(-4.49861 -4.54422)"/><path id="Path_323" data-name="Path 323" class="cls-5" d="M599.23907,230.819a5.04709,5.04709,0,0,0,.14077-1.31066c-10.32406-20.20153-149.23533-28.72491-197.396-35.03923a209.25953,209.25953,0,0,1-25.16188-4.77729c-82.54468-21.33014-132.38724,42.84034-132.38724,42.84034-43.73774,45.60737-51.60493,69.01175-50.97119,80.40353a10.25226,10.25226,0,0,0,1.70614,5.2526,7.5358,7.5358,0,0,0,2.1943,2.22583c20.1799,11.20482,28.42378,4.95146,28.42378,4.95146.15254.84917.32071,1.63047.492,2.38229a.976.976,0,0,0,.09849-.07087c.129.71932.26858,1.39335.41537,2.04277,4.32949,14.73343,13.5713,7.47836,13.5713,7.47836,21.07045,24.1296,32.84481,2.97957,32.84481,2.97957,17.95893,21.648,25.822-5.0627,25.822-5.0627,22.49119,10.60358,28.87253-9.14529,28.87253-9.14529,24.77222,6.72265,23.7911-16.049,23.7911-16.049,48.03289,17.12653,45.42034-15.08862,45.42034-15.08862,63.77879,8.10124,60.28771-14.83872,60.28771-14.83872,68.91235-.63175,66.05-17.98062,66.05-17.98062,53.58469-8.98589,45.16545-22.42141,45.16545-22.42141S595.306,246.90832,599.23907,230.819Z" transform="translate(-4.49861 -4.54422)"/><path id="Path_324" data-name="Path 324" class="cls-4" d="M356.01622,253.70677s89.10211,38.05224,133.513,25.93135C489.5292,279.64,456.30339,285.22032,356.01622,253.70677Z" transform="translate(-4.49861 -4.54422)"/><path id="Path_325" data-name="Path 325" class="cls-4" d="M403.19964,297.78408s-59.408-8.82945-91.4636-30.9281c0,0,44.21989,25.029,99.67913,29.37042Z" transform="translate(-4.49861 -4.54422)"/><path id="Path_326" data-name="Path 326" class="cls-4" d="M351.70522,309.92365s-42.37993-11.194-62.48392-34.75383c0,0,11.59634,22.48045,65.0256,37.7403Z" transform="translate(-4.49861 -4.54422)"/><path id="Path_327" data-name="Path 327" class="cls-4" d="M330.17616,326.5207s-35.90706-6.6095-56.86725-39.81454c0,0,8.9456,28.102,56.8329,41.98037Z" transform="translate(-4.49861 -4.54422)"/><path id="Path_328" data-name="Path 328" class="cls-4" d="M299.04255,335.11892s-23.02548-6.0772-36.13433-31.91108c0,0,8.06874,24.38647,39.721,35.27538Z" transform="translate(-4.49861 -4.54422)"/><path id="Path_329" data-name="Path 329" class="cls-4" d="M241.4373,338.38682s-5.43458-14.85247-1.64224-22.41648c0,0-6.53269,3.34562.21068,22.97142Z" transform="translate(-4.49861 -4.54422)"/><path id="Path_330" data-name="Path 330" class="cls-4" d="M226.38807,327.67791s-3.5718-10.5849-.38077-20.46032c0,0-6.2975,7.39374-.3935,20.664Z" transform="translate(-4.49861 -4.54422)"/><path id="Path_331" data-name="Path 331" class="cls-4" d="M273.54506,340.31248s-5.38653-3.11338-2.6469-13.25348c0,0-5.05668,7.33471,2.22385,14.29555Z" transform="translate(-4.49861 -4.54422)"/><path id="Path_332" data-name="Path 332" class="cls-4" d="M527.60967,263.70519s-97.74068,2.06637-151.57714-37.40078c0,0,48.49942,31.58633,158.11775,35.70142Z" transform="translate(-4.49861 -4.54422)"/><path id="Path_333" data-name="Path 333" class="cls-4" d="M569.63238,241.28775s-76.11721-2.43345-108.56851-26.381c0,0,27.67881,17.22983,108.44647,24.88531Z" transform="translate(-4.49861 -4.54422)"/><path id="Path_334" data-name="Path 334" class="cls-4" d="M376.82074,189.69177c-82.54468-21.33014-132.38725,42.84034-132.38725,42.84034-27.55893,28.73278-40.87342,48.6548-46.79495,62.31072.46845-.76454,72.70877-118.375,152.45183-103.26378,6.00249,1.13655,12.00474,2.1815,18.07113,2.89494a874.19432,874.19432,0,0,0,89.1158,5.85679h0c-22.2207-2.24649-42.13971-4.13281-55.2918-5.86069A209.252,209.252,0,0,1,376.82074,189.69177Z" transform="translate(-4.49861 -4.54422)"/></g><path id="Path_335" data-name="Path 335" class="cls-4" d="M358.58829,226.7s21.72581,14.43332,3.94777,21.705-27.34128-16.86179-27.34128-16.86179,1.23792,7.89956,5.94627,13.91964a4.22088,4.22088,0,0,1,.77043,3.58766c-.984,4.03437-3.89371,8.5214-12.356,5.50058-14.01406-5.00264-15.52465-23.13382-15.52465-23.13382s.88551,10.65378,6.22975,18.449a3.47571,3.47571,0,0,1-.6013,4.65334c-3.20184,2.65681-8.25781,4.56577-13.23978-2.97854-8.19871-12.41806,1.48584-27.82061,1.48584-27.82061s-8.18693,13.03107-5.62364,24.12959a3.31914,3.31914,0,0,1-.94748,3.2216c-3.14875,2.88215-8.51558,5.50544-13.79568-2.49147-8.19967-12.419,1.48585-27.82061,1.48585-27.82061s-6.10075,9.70912-6.12838,19.50287a2.88221,2.88221,0,0,1-2.33507,2.81326c-2.96881.56184-6.71983-.07772-7.39176-6.52392-1.1404-10.93912,10.46291-17.7366,10.46291-17.7366s-16.24583,9.51525-11.42433,21.41675c0,0,4.47916,8.71623,10.86531,2.7965a16.08892,16.08892,0,0,0,5.60874,10.56916s10.41271,7.36918,14.55338-2.83194a15.88394,15.88394,0,0,0,4.3295,5.7918s11.11035,7.86413,14.94208-3.90056a16.1376,16.1376,0,0,0,10.97846,5.21519s11.6821-.33063,10.21691-9.68744c4.14068,3.629,10.17656,5.54874,18.887,2.35375C385.67973,242.075,358.58829,226.7,358.58829,226.7Z" transform="translate(-4.49861 -4.54422)"/><path id="Path_336" data-name="Path 336" class="cls-4" d="M293.14458,197.00189s-22.319,31.40136,40.94622,25.24056a128.20554,128.20554,0,0,0,16.46132-2.769c12.86382-2.97464,69.58933-4.34926,23.67988-4.7173a93.76052,93.76052,0,0,0-18.68133,1.7584C335.31167,220.45847,280.76484,228.44559,293.14458,197.00189Z" transform="translate(-4.49861 -4.54422)"/></g></svg>