<svg id="Слой_1" data-name="Слой 1" xmlns="http://www.w3.org/2000/svg" viewBox="0 0 103 103"><defs><style>.cls-1{fill:#fff;}.cls-2{fill:none;}.cls-3{fill:#7e4fde;}</style></defs><title>иконка юзера</title><g id="Ellipse_3" data-name="Ellipse 3"><path class="cls-1" d="M296.84758,260.5A51.25684,51.25684,0,0,1,282,296.66634v.01993c-.52452.52475-1.06873,1.049-1.61293,1.55433a51.47717,51.47717,0,0,1-68.42691,1.45755c-.58311-.4664-1.14677-.9717-1.691-1.49645A51.49864,51.49864,0,1,1,296.84758,260.5Z" transform="translate(-193.84758 -209)"/></g><g id="Ellipse_4" data-name="Ellipse 4"><circle class="cls-2" cx="52.4717" cy="42.75472" r="17.49057"/><path class="cls-3" d="M246.31927,234.26415a17.49057,17.49057,0,1,0,17.49057,17.49057A17.517,17.517,0,0,0,246.31927,234.26415Zm0,33.03774a15.54717,15.54717,0,1,1,15.54717-15.54717A15.568,15.568,0,0,1,246.31927,267.30189Z" transform="translate(-193.84758 -209)"/></g><g id="Ellipse_5" data-name="Ellipse 5"><path class="cls-2" d="M210.26927,298.20189A36.92167,36.92167,0,0,1,282,296.6666" transform="translate(-193.84758 -209)"/><path class="cls-3" d="M281.08666,293.75124c-.11648-.34967-.25265-.69935-.38882-1.02958-.11648-.3307-.25241-.66092-.38859-.9717-.21374-.52475-.46639-1.04951-.719-1.57426-.25265-.54421-.52476-1.069-.81631-1.59372-.17484-.33022-.36914-.66092-.56366-.99115a3.73773,3.73773,0,0,0-.34968-.60257q-.437-.72878-.9328-1.45754c-.33022-.48585-.68014-.9717-1.03-1.43762-.34968-.46687-.6996-.93327-1.069-1.38021-.01945-.01946-.03866-.01946-.03866-.03891-.36937-.44694-.758-.89389-1.14654-1.32138q-.58323-.612-1.16623-1.22411-.64123-.67041-1.34083-1.28294l-1.34083-1.16576c-.44718-.3696-.91357-.73873-1.39942-1.08841-.408-.31077-.81632-.60257-1.24381-.89389-.19429-.13617-.408-.27234-.60256-.38858-.408-.2918-.81608-.54421-1.24357-.7971a3.24182,3.24182,0,0,0-.34968-.19453c-.73873-.44694-1.49645-.855-2.27409-1.24356a3.76308,3.76308,0,0,0-.408-.19406c-.5053-.25289-1.03006-.48585-1.55481-.69983-.641-.27187-1.28247-.52475-1.92394-.77764-.50531-.1746-.99116-.33023-1.49622-.48585-.60233-.19406-1.18544-.34968-1.788-.50483q-.87466-.23343-1.74887-.408c-.60256-.13617-1.22458-.23343-1.82691-.3307-.58288-.09726-1.166-.17507-1.76856-.233-.34968-.0389-.69959-.05836-1.04951-.07781-.38858-.03891-.79662-.05836-1.20466-.07781-.52475-.01945-1.069-.03891-1.59372-.03891-.5442,0-1.10786.01946-1.65184.03891-.311.01945-.60233.01945-.91357.05836a11.0175,11.0175,0,0,0-1.12709.09726,21.15286,21.15286,0,0,0-2.23495.29132c-.5053.07781-1.0106.15563-1.51591.27234-.46639.09679-.93279.19406-1.37973.31078a37.13052,37.13052,0,0,0-4.17811,1.28247c-.4664.17507-.91334.36913-1.36052.56366-.544.23343-1.08818.46639-1.63239.73826-.54421.25289-1.069.52476-1.59372.81655-.36913.19405-.73826.408-1.10763.622-.2721.15515-.56342.33022-.83576.50483-.42749.27234-.855.5442-1.28247.836-.85522.58264-1.67153,1.20466-2.46816,1.84613a39.1804,39.1804,0,0,0-2.97345,2.70111c-.34968.35015-.68014.69983-1.0106,1.069-.42749.4664-.83553.9328-1.24357,1.41865-.36937.44694-.71928.91334-1.069,1.38021a31.34689,31.34689,0,0,0-2.196,3.30367c-.25265.38859-.46663.77717-.68014,1.18521-.29156.5053-.54421,1.0106-.79686,1.53536a.1486.1486,0,0,0-.0389.09726c-.25265.52476-.50531,1.04951-.719,1.59325-.17508.38906-.33023.79709-.48585,1.20513a35.56462,35.56462,0,0,0-1.55481,5.18872c.54421.52475,1.10787,1.03,1.691,1.49645a34.9682,34.9682,0,0,1,68.42691-1.45755c.5442-.5053,1.08841-1.02958,1.61293-1.55433v-.01993A29.88085,29.88085,0,0,0,281.08666,293.75124Z" transform="translate(-193.84758 -209)"/></g></svg>